<svg width="142" height="124" viewBox="0 0 142 124" fill="none" xmlns="http://www.w3.org/2000/svg">
<g clip-path="url(#clip0_237_144)">
<path d="M20.7118 120.017L20.7196 120.026L20.7278 120.035L23.8699 123.336L19.6089 123.321L18.4482 121.983C6.87823 108.605 0.5 91.3222 0.5 73.31C0.5 33.1476 31.9243 0.5 70.52 0.5C109.106 0.5 140.53 33.1476 140.55 73.3102C140.55 91.3323 134.172 108.616 122.602 121.993L121.441 123.331L117.17 123.354L120.313 120.044L120.321 120.036L120.328 120.027C131.428 107.194 137.54 90.5975 137.54 73.31C137.54 34.8334 107.495 3.5 70.52 3.5C33.5447 3.5 3.5 34.8334 3.5 73.3C3.5 90.5875 9.61158 107.184 20.7118 120.017Z" fill="#1E2C30" stroke="#1E2C30"/>
<path d="M94.5169 76.47L92.5621 119.74H92.04H91.5631L93.518 76.47H94.04H94.5169Z" fill="#1E2C30" stroke="#1E2C30"/>
<path d="M47.4779 119.77L45.5231 76.5H46H46.5221L48.4769 119.77H48H47.4779Z" fill="#1E2C30" stroke="#1E2C30"/>
<path d="M110.965 119.73H109.954L106.543 86.0477L106.542 86.0477C106.448 87.1505 106.49 88.2798 106.676 89.5142C107.497 95.058 109.78 111.301 110.728 118.045C110.82 118.703 110.9 119.271 110.965 119.73Z" fill="#1E2C30" stroke="#1E2C30"/>
<path d="M70.2467 29.966L67.2491 32.626L66.8276 33L67.2491 33.374L70.2467 36.034L69.9114 36.3315L66.8242 33.592L66.4923 33.2975L66.1605 33.592L63.0756 36.3294L62.7503 36.0367L65.7509 33.374L66.1724 33L65.7509 32.626L62.7503 29.9633L63.0756 29.6706L66.1605 32.408L66.4923 32.7025L66.8242 32.408L69.9114 29.6685L70.2467 29.966Z" fill="#1E2C30" stroke="#1E2C30"/>
<path d="M51.5485 30.6985L51.5484 30.6985L51.5469 30.7078C51.5432 30.73 51.5394 30.7524 51.5356 30.775C51.5089 30.9344 51.481 31.101 51.4603 31.2627L51.3685 31.3711C51.6523 28.9259 52.9481 26.1911 55.1409 23.614C57.5869 20.7392 59.9709 19.4992 61.9351 18.9252L61.8367 19.0411C61.6706 19.0893 61.4944 19.1428 61.3108 19.2095C59.4556 19.8701 57.3335 21.1522 55.1992 23.6661C52.8358 26.4388 51.8853 28.888 51.5485 30.6985Z" fill="#1E2C30" stroke="#1E2C30"/>
</g>
<defs>
<clipPath id="clip0_237_144">
<rect width="141.03" height="123.86" fill="white"/>
</clipPath>
</defs>
</svg>
