<svg width="142" height="124" viewBox="0 0 142 124" fill="none" xmlns="http://www.w3.org/2000/svg">
<g clip-path="url(#clip0_237_154)">
<path d="M121.66 123.83L115.99 123.86L119.94 119.7C130.96 106.96 137.03 90.48 137.03 73.31C137.03 35.09 107.19 4 70.51 4C33.83 4 4 35.09 4 73.31C4 90.48 10.07 106.95 21.09 119.7L25.04 123.85L19.38 123.83L18.07 122.32C6.42 108.85 0 91.44 0 73.31C0 32.89 31.63 0 70.52 0C109.41 0 141.04 32.89 141.04 73.31C141.04 91.44 134.62 108.85 122.97 122.32L121.66 123.83Z" fill="#1E2C30"/>
<path d="M93.04 75.97L91.04 120.24H92.04H93.04L95.04 75.97H94.04H93.04Z" fill="#1E2C30"/>
<path d="M46.3301 75.97H45.3301L47.3301 120.24H48.3301H49.3301L47.3301 75.97H46.3301Z" fill="#1E2C30"/>
<path d="M107.17 89.45C106.99 88.25 106.95 87.16 107.04 86.1C108.58 68.29 100.61 58.27 82.05 54.83C84.62 51.3 86.21 46.63 86.21 41.5C86.21 30.53 79.03 21.61 70.21 21.61C61.39 21.61 54.21 30.53 54.21 41.5C54.21 46.83 55.92 51.67 58.67 55.25C40.3 58.74 32.41 68.75 33.95 86.47C34.04 87.53 34 88.62 33.82 89.82C32.91 95.98 30.18 115.4 29.51 120.24H31.53C32.27 114.95 34.91 96.16 35.8 90.11C36 88.76 36.05 87.51 35.94 86.3C34.46 69.23 41.98 60.09 60.2 57C61.03 56.86 61.88 56.73 62.75 56.62C62.1 56.1 61.49 55.51 60.92 54.86C58.03 51.58 56.2 46.82 56.2 41.5C56.2 31.64 62.48 23.61 70.2 23.61C77.92 23.61 84.2 31.63 84.2 41.5C84.2 46.6 82.51 51.19 79.83 54.45C79.3 55.1 78.73 55.7 78.12 56.23C78.96 56.34 79.78 56.46 80.59 56.59C98.96 59.65 106.53 68.79 105.05 85.92C104.94 87.14 104.99 88.38 105.19 89.73C106.11 95.92 108.85 115.49 109.52 120.23H111.54C110.96 116.11 108.11 95.78 107.17 89.44V89.45Z" fill="#1E2C30"/>
<path d="M70.93 62.95C67.07 62.95 64.05 65.05 64.05 67.73C64.05 70.41 67.07 72.51 70.93 72.51C74.79 72.51 77.81 70.41 77.81 67.73C77.81 65.05 74.79 62.95 70.93 62.95ZM70.93 70.5C68.33 70.5 66.05 69.2 66.05 67.72C66.05 66.24 68.33 64.94 70.93 64.94C73.53 64.94 75.81 66.24 75.81 67.72C75.81 69.2 73.53 70.5 70.93 70.5Z" fill="#1E2C30"/>
<path d="M70.93 77.17C67.07 77.17 64.05 79.27 64.05 81.95C64.05 84.63 67.07 86.73 70.93 86.73C74.79 86.73 77.81 84.63 77.81 81.95C77.81 79.27 74.79 77.17 70.93 77.17ZM70.93 84.72C68.33 84.72 66.05 83.42 66.05 81.94C66.05 80.46 68.33 79.16 70.93 79.16C73.53 79.16 75.81 80.46 75.81 81.94C75.81 83.42 73.53 84.72 70.93 84.72Z" fill="#1E2C30"/>
<path d="M70.93 91.39C67.07 91.39 64.05 93.49 64.05 96.17C64.05 98.85 67.07 100.95 70.93 100.95C74.79 100.95 77.81 98.85 77.81 96.17C77.81 93.49 74.79 91.39 70.93 91.39ZM70.93 98.95C68.33 98.95 66.05 97.65 66.05 96.17C66.05 94.69 68.33 93.39 70.93 93.39C73.53 93.39 75.81 94.69 75.81 96.17C75.81 97.65 73.53 98.95 70.93 98.95Z" fill="#1E2C30"/>
<path d="M70.93 105.61C67.07 105.61 64.05 107.71 64.05 110.39C64.05 113.07 67.07 115.17 70.93 115.17C74.79 115.17 77.81 113.07 77.81 110.39C77.81 107.71 74.79 105.61 70.93 105.61ZM70.93 113.17C68.33 113.17 66.05 111.87 66.05 110.39C66.05 108.91 68.33 107.61 70.93 107.61C73.53 107.61 75.81 108.91 75.81 110.39C75.81 111.87 73.53 113.17 70.93 113.17Z" fill="#1E2C30"/>
<path d="M64.5401 72.5C62.3601 72.5 60.5901 70.21 60.5901 67.39C60.5901 64.57 62.3601 62.28 64.5401 62.28" stroke="#1E2C30" stroke-width="0.75" stroke-miterlimit="10"/>
<path d="M64.5401 87.06C62.3601 87.06 60.5901 84.77 60.5901 81.95C60.5901 79.13 62.3601 76.84 64.5401 76.84" stroke="#1E2C30" stroke-width="0.75" stroke-miterlimit="10"/>
<path d="M64.5401 101.28C62.3601 101.28 60.5901 98.99 60.5901 96.17C60.5901 93.35 62.3601 91.06 64.5401 91.06" stroke="#1E2C30" stroke-width="0.75" stroke-miterlimit="10"/>
<path d="M64.5401 115.51C62.3601 115.51 60.5901 113.22 60.5901 110.4C60.5901 107.58 62.3601 105.29 64.5401 105.29" stroke="#1E2C30" stroke-width="0.75" stroke-miterlimit="10"/>
<path d="M77.8701 72.33C80.0501 72.33 81.8201 70.04 81.8201 67.22C81.8201 64.4 80.0501 62.11 77.8701 62.11" stroke="#1E2C30" stroke-width="0.75" stroke-miterlimit="10"/>
<path d="M77.8701 86.89C80.0501 86.89 81.8201 84.6 81.8201 81.78C81.8201 78.96 80.0501 76.67 77.8701 76.67" stroke="#1E2C30" stroke-width="0.75" stroke-miterlimit="10"/>
<path d="M77.8701 101.12C80.0501 101.12 81.8201 98.83 81.8201 96.01C81.8201 93.19 80.0501 90.9 77.8701 90.9" stroke="#1E2C30" stroke-width="0.75" stroke-miterlimit="10"/>
<path d="M77.8701 115.34C80.0501 115.34 81.8201 113.05 81.8201 110.23C81.8201 107.41 80.0501 105.12 77.8701 105.12" stroke="#1E2C30" stroke-width="0.75" stroke-miterlimit="10"/>
</g>
<defs>
<clipPath id="clip0_237_154">
<rect width="141.03" height="123.86" fill="white"/>
</clipPath>
</defs>
</svg>
