<svg width="142" height="125" viewBox="0 0 142 125" fill="none" xmlns="http://www.w3.org/2000/svg">
<g clip-path="url(#clip0_237_135)">
<path d="M31.3815 84.9712L30.2709 85.008L30.2497 84.4465C30.2497 84.4463 30.2497 84.4461 30.2497 84.4459C30.1596 81.9115 30.0394 79.5979 29.9294 77.4882L29.9293 77.4877C29.5124 69.6353 29.2456 64.3996 31.3111 59.7251C33.369 55.0679 37.7847 50.8925 46.9883 45.3424L46.9908 45.3409L47.4614 45.0533L48.0355 46.0067L47.5617 46.2962C47.5613 46.2964 47.5609 46.2967 47.5604 46.2969C38.8797 51.5355 34.483 55.3896 32.4109 59.9603C30.3574 64.4902 30.6299 69.6507 31.0341 77.3038L31.0407 77.43L31.0407 77.4306L31.0461 77.5333C31.1546 79.635 31.272 81.9076 31.3604 84.4119L31.3604 84.4131L31.3815 84.9712Z" fill="#1E2C30" stroke="#1E2C30"/>
<path d="M40.48 118.404C40.251 108.352 39.7547 100.063 39.3557 93.3995L39.35 93.3043L39.8491 93.2745L39.8549 93.3712C40.252 100.004 40.746 108.253 40.9766 118.25M40.48 118.404L40.9799 118.396L40.9798 118.393M40.48 118.404C40.49 118.984 42.61 118.944 42.59 118.354L40.48 118.404ZM40.9766 118.25C40.9259 118.233 40.9072 118.219 40.907 118.22C40.907 118.22 40.9079 118.22 40.9097 118.222C40.9269 118.238 40.9772 118.297 40.9798 118.393M40.9766 118.25C40.9774 118.251 40.9782 118.251 40.979 118.251C41.1057 118.295 41.3081 118.323 41.5356 118.318C41.7633 118.313 41.963 118.276 42.086 118.228C42.0863 118.228 42.0866 118.227 42.0869 118.227M40.9766 118.25C40.9777 118.298 40.9787 118.345 40.9798 118.393M40.9798 118.393L42.0869 118.227M42.0869 118.227C41.8574 108.22 41.3659 99.9892 40.9692 93.3441L40.9608 93.2041L40.96 93.1892V93.1743C40.96 90.2065 40.8805 87.5018 40.8069 84.9978C40.8009 84.7955 40.795 84.5946 40.7892 84.3949C40.7114 81.7269 40.6483 79.2819 40.7098 77.0025C40.833 72.4379 41.4562 68.4978 43.4855 64.6617C45.5123 60.8302 48.9169 57.1489 54.5212 53.0484C60.1237 48.9493 67.9508 44.4124 78.8537 38.8784L78.9603 38.8243H78.9609C79.2555 38.6614 79.5522 38.4973 79.851 38.3321C83.9244 36.0798 88.3925 33.6094 93.3039 30.849C93.5759 30.6936 93.667 30.3581 93.5153 30.0914C93.3601 29.8186 93.0241 29.7271 92.7571 29.8789L92.7543 29.8805C87.433 32.8613 82.6419 35.5118 78.3019 37.9118L78.3019 37.9119C68.2161 43.4875 60.6519 47.6897 54.9976 51.3767C49.3426 55.0642 45.6436 58.2084 43.2571 61.6504C40.8802 65.0786 39.778 68.8422 39.3958 73.8233C39.0123 78.8224 39.3559 85.0081 39.8491 93.2744L42.0869 118.227ZM42.1493 118.199C42.1567 118.192 42.162 118.189 42.1628 118.189C42.1636 118.189 42.1599 118.192 42.1493 118.199Z" fill="#1E2C30" stroke="#1E2C30"/>
<path d="M91.1989 98.1877C94.2242 105.403 98.2126 114.206 107.716 118.809C107.661 118.83 107.605 118.849 107.552 118.866C107.474 118.89 107.405 118.909 107.349 118.92C107.321 118.926 107.299 118.93 107.282 118.932C107.264 118.934 107.258 118.934 107.26 118.934C107.178 118.934 107.097 118.918 107.021 118.887C96.7184 114.194 93.4203 106.369 90.1711 98.621L90.1655 98.6075C87.5576 92.3765 85.1139 86.5377 79.0535 82.9734L78.3 82.5302V83.4043V118.23C78.2994 118.231 78.2988 118.231 78.2983 118.231C78.1731 118.277 77.9722 118.309 77.745 118.309C77.5179 118.309 77.317 118.277 77.1918 118.231C77.1912 118.231 77.1906 118.231 77.19 118.23V82.3243V81.9987L76.8921 81.867C74.159 80.6591 70.811 79.849 66.6273 79.5357L66.6273 79.5357L66.6244 79.5355C66.3292 79.5152 66.0972 79.2526 66.1188 78.9387C66.139 78.6464 66.4084 78.4122 66.7138 78.433C75.1284 79.0707 80.2666 81.7379 83.7824 85.3363C87.32 88.9571 89.2578 93.5582 91.1989 98.1877Z" fill="#1E2C30" stroke="#1E2C30"/>
<path d="M121.66 124.274L115.99 124.304L119.94 120.144C130.96 107.404 137.03 90.9243 137.03 73.7543C137.03 35.5343 107.19 4.44434 70.51 4.44434C33.83 4.44434 4 35.5343 4 73.7543C4 90.9243 10.07 107.394 21.09 120.144L25.04 124.294L19.38 124.274L18.07 122.764C6.42 109.294 0 91.8843 0 73.7543C0 33.3343 31.63 0.444336 70.52 0.444336C109.41 0.444336 141.04 33.3343 141.04 73.7543C141.04 91.8843 134.62 109.294 122.97 122.764L121.66 124.274Z" fill="#1E2C30"/>
</g>
<defs>
<clipPath id="clip0_237_135">
<rect width="141.03" height="123.86" fill="white" transform="translate(0 0.444336)"/>
</clipPath>
</defs>
</svg>
