<svg width="142" height="126" viewBox="0 0 142 126" fill="none" xmlns="http://www.w3.org/2000/svg">
<g clip-path="url(#clip0_237_231)">
<path d="M20.7118 120.017L20.7196 120.026L20.7278 120.035L23.8699 123.336L19.6089 123.321L18.4482 121.983C6.87823 108.605 0.5 91.3222 0.5 73.31C0.5 33.1476 31.9243 0.5 70.52 0.5C109.106 0.5 140.53 33.1476 140.55 73.3102C140.55 91.3323 134.172 108.616 122.602 121.993L121.441 123.331L117.17 123.354L120.313 120.044L120.321 120.036L120.328 120.027C131.428 107.194 137.54 90.5975 137.54 73.31C137.54 34.8334 107.495 3.5 70.52 3.5C33.5447 3.5 3.5 34.8334 3.5 73.3C3.5 90.5875 9.61158 107.184 20.7118 120.017Z" fill="#1E2C30" stroke="#1E2C30"/>
<path d="M55.811 69.7011C54.8053 71.0017 53.9133 73.0118 53.9798 76.37L55.811 69.7011ZM55.811 69.7011L55.8157 69.8931C55.7387 69.9926 55.6585 70.0995 55.5779 70.2167L55.5778 70.2167L55.5739 70.2226C54.65 71.6084 53.9482 73.6018 54.01 76.5903L54.01 76.5909C54.0245 77.2555 54.0712 77.8832 54.1438 78.4751C54.0497 77.7906 53.9942 77.0871 53.9798 76.3701L55.811 69.7011Z" fill="#1E2C30" stroke="#1E2C30"/>
<mask id="path-3-inside-1_237_231" fill="white">
<path d="M52.65 81.61C52.06 80.55 51.48 78.96 51.44 76.75C51.4 74.75 51.87 73.45 52.46 72.56C52.53 72.45 52.61 72.35 52.69 72.26L52.67 71.13C52.59 71.2 52.52 71.29 52.44 71.37C51.56 72.31 50.68 73.83 50.74 76.61C50.79 79.02 51.49 81.22 52.69 82.8C52.77 82.9 52.85 82.99 52.93 83.09L52.91 82.02C52.83 81.89 52.75 81.76 52.67 81.61H52.65Z"/>
</mask>
<path d="M52.65 81.61C52.06 80.55 51.48 78.96 51.44 76.75C51.4 74.75 51.87 73.45 52.46 72.56C52.53 72.45 52.61 72.35 52.69 72.26L52.67 71.13C52.59 71.2 52.52 71.29 52.44 71.37C51.56 72.31 50.68 73.83 50.74 76.61C50.79 79.02 51.49 81.22 52.69 82.8C52.77 82.9 52.85 82.99 52.93 83.09L52.91 82.02C52.83 81.89 52.75 81.76 52.67 81.61H52.65Z" fill="#1E2C30"/>
<path d="M52.65 81.61L51.7762 82.0964L52.0621 82.61H52.65V81.61ZM51.44 76.75L52.4398 76.7319L52.4398 76.73L51.44 76.75ZM52.46 72.56L53.2934 73.1125L53.2986 73.1048L53.3036 73.0969L52.46 72.56ZM52.69 72.26L53.4374 72.9244L53.6967 72.6326L53.6898 72.2423L52.69 72.26ZM52.67 71.13L53.6698 71.1123L53.6317 68.9597L52.0115 70.3774L52.67 71.13ZM52.44 71.37L51.7329 70.6629L51.7212 70.6746L51.7099 70.6866L52.44 71.37ZM50.74 76.61L51.7397 76.5893L51.7397 76.5884L50.74 76.61ZM52.69 82.8L51.8936 83.4048L51.9012 83.4149L51.9091 83.4247L52.69 82.8ZM52.93 83.09L52.1491 83.7147L53.9847 86.0092L53.9298 83.0713L52.93 83.09ZM52.91 82.02L53.9098 82.0013L53.9047 81.7284L53.7616 81.4959L52.91 82.02ZM52.67 81.61L53.5523 81.1394L53.27 80.61H52.67V81.61ZM53.5237 81.1237C53.0083 80.1976 52.4766 78.7674 52.4398 76.7319L50.4401 76.7681C50.4833 79.1526 51.1116 80.9024 51.7762 82.0964L53.5237 81.1237ZM52.4398 76.73C52.4033 74.9079 52.8291 73.813 53.2934 73.1125L51.6265 72.0075C50.9108 73.087 50.3966 74.5921 50.4402 76.77L52.4398 76.73ZM53.3036 73.0969C53.3366 73.045 53.3807 72.9881 53.4374 72.9244L51.9426 71.5956C51.8392 71.7119 51.7233 71.855 51.6163 72.0231L53.3036 73.0969ZM53.6898 72.2423L53.6698 71.1123L51.6701 71.1477L51.6901 72.2777L53.6898 72.2423ZM52.0115 70.3774C51.9252 70.4529 51.855 70.5296 51.815 70.5736C51.7638 70.6299 51.7508 70.645 51.7329 70.6629L53.1471 72.0771C53.2091 72.0151 53.2711 71.9451 53.2949 71.9189C53.3299 71.8804 53.3347 71.8771 53.3285 71.8826L52.0115 70.3774ZM51.7099 70.6866C50.6506 71.8182 49.6746 73.5916 49.7402 76.6316L51.7397 76.5884C51.6853 74.0684 52.4694 72.8018 53.17 72.0534L51.7099 70.6866ZM49.7402 76.6308C49.7937 79.2093 50.5421 81.6254 51.8936 83.4048L53.4863 82.1952C52.4378 80.8146 51.7863 78.8307 51.7397 76.5893L49.7402 76.6308ZM51.9091 83.4247C51.9582 83.4861 52.0062 83.543 52.0451 83.5892C52.0862 83.638 52.1182 83.6761 52.1491 83.7147L53.7108 82.4653C53.6617 82.4039 53.6137 82.347 53.5749 82.3009C53.5337 82.252 53.5017 82.2139 53.4708 82.1753L51.9091 83.4247ZM53.9298 83.0713L53.9098 82.0013L51.9101 82.0387L51.9301 83.1087L53.9298 83.0713ZM53.7616 81.4959C53.6802 81.3636 53.6158 81.2584 53.5523 81.1394L51.7876 82.0806C51.8841 82.2616 51.9797 82.4164 52.0583 82.5441L53.7616 81.4959ZM52.67 80.61H52.65V82.61H52.67V80.61Z" fill="#1E2C30" mask="url(#path-3-inside-1_237_231)"/>
<path d="M66.39 43.29C66.39 43.29 60.8 47.14 61.02 53.82V65.25C61.02 65.58 61.02 66.73 61.02 68.44C59.7 69.92 59.23 73.28 59.23 77.18C59.23 81.08 59.7 84.43 61.02 85.91C61.02 95.24 61.02 104.47 61.02 105.78V124.48H65.11V104.98C65.11 103.92 65.01 94.17 64.92 84.61C65.78 82.86 65.87 80.18 65.87 77.17C65.87 74.16 65.73 71.25 64.8 69.5C64.8 67.36 64.8 65.9 64.8 65.51L65.32 53.81C65.81 49.45 68.56 47.66 71.5 46.41C70.55 44.31 68.83 41.91 68.61 39.72C68.15 41.03 67.68 42.18 66.38 43.28L66.39 43.29Z" fill="#1E2C30"/>
<path d="M70.5987 45.1747C70.5984 45.1743 70.5981 45.1738 70.5977 45.1733C70.5899 45.1625 70.5757 45.1411 70.5543 45.1055C70.4781 44.9793 70.3739 44.7816 70.2546 44.5553C70.2345 44.517 70.2139 44.478 70.1929 44.4383C70.1926 44.4377 70.1923 44.437 70.1919 44.4364L70.1523 44.3599C69.7949 43.6694 69.5915 43.2764 69.5001 42.9374C69.4195 42.6382 69.4272 42.3787 69.5808 41.9479L69.646 41.765L69.5707 41.5861L69.0407 40.3261L68.9228 40.0458L68.9059 40.0445C68.9069 40.0296 68.9078 40.0148 68.9087 40.0001C68.9225 39.7642 68.9236 39.5004 68.9198 39.2438C68.9161 38.9976 68.9086 38.768 68.9019 38.5644C68.8939 38.3196 68.8871 38.1125 68.8898 37.9596C68.9205 36.5029 68.7665 35.0617 68.6071 33.5776C68.6071 33.5773 68.607 33.5769 68.607 33.5766L68.6034 33.5422C68.4138 31.7058 68.2237 29.8654 68.378 28.0324C68.7211 24.0537 69.9301 21.0613 72.0327 18.844L72.0333 18.8434C73.003 17.8169 74.6292 16.7129 76.4132 15.8098C78.1959 14.9074 80.078 14.2351 81.5376 14.0354L81.5398 14.0351C83.2052 13.7998 84.0005 14.4006 84.38 14.8731L84.3822 14.8758C84.9785 15.6078 85.1255 16.7002 84.9781 17.9855C84.8324 19.2565 84.4111 20.61 83.9991 21.7616L83.9884 21.7914L83.9816 21.8224C83.8413 22.4592 82.5569 28.8154 85.0828 36.8696L85.0827 36.8696L85.0855 36.8781L85.0981 36.9158C85.1352 37.0786 85.3383 38.0192 85.3236 39.2126C85.308 40.4895 85.044 41.985 84.1372 43.1405C83.1756 44.3602 81.6895 45.01 79.6198 45.01C79.6232 45.01 75.1781 44.4048 71.475 45.9032L70.9698 45.7685L70.7231 45.2389L70.1477 45.3989C70.1016 45.3254 70.0453 45.225 69.9832 45.1102C70.0461 45.0673 70.1258 45.0349 70.2244 45.0285C70.3987 45.0171 70.5139 45.1012 70.535 45.1166L70.5354 45.117C70.5681 45.1408 70.5896 45.1639 70.5987 45.1747ZM70.5987 45.1747C70.6021 45.1794 70.6037 45.1813 70.6036 45.181C70.6035 45.1807 70.6019 45.1785 70.5987 45.1747ZM69.9099 38.0029C69.9036 38.443 69.8549 38.8661 69.7692 39.2757L69.4554 39.1188L69.5845 40.0581C69.7769 41.4584 70.4047 42.6678 71.072 43.9533L71.0857 43.9797L71.0861 43.9804L71.3107 44.4147L71.5357 44.8497L71.7355 45.236L72.1458 45.0917C73.9826 44.4454 75.8195 44.1687 77.2232 44.0572C77.9238 44.0015 78.5129 43.9872 78.9357 43.988C79.147 43.9883 79.3162 43.9925 79.4363 43.997C79.5642 44.0019 79.6226 44.0067 79.6214 44.0066L79.6505 44.01H79.6798C81.2533 44.01 82.5441 43.5401 83.3503 42.5324L83.3525 42.5295C84.1248 41.5497 84.3168 40.2568 84.3298 39.2351C84.3427 38.2237 84.1804 37.389 84.1433 37.1982L84.1407 37.185L84.1355 37.1577L84.1272 37.1311C81.4354 28.5 82.9421 21.9227 83.0323 21.5517L83.0549 21.4767C83.7711 19.4867 84.0205 18.1466 84.0422 17.2369C84.064 16.3254 83.857 15.8067 83.618 15.5149C83.1949 14.9891 82.4372 14.9328 81.6886 15.0451C80.3016 15.2363 78.5244 15.8923 76.8907 16.7174C75.2578 17.5421 73.6997 18.5703 72.7773 19.5457C70.797 21.6313 69.7083 24.4611 69.3917 28.1367C69.2368 29.9032 69.4235 31.681 69.6228 33.494C69.7831 34.9872 69.9392 36.4967 69.9099 38.0003L69.9099 38.0029Z" fill="#1E2C30" stroke="#1E2C30"/>
<path d="M69.3399 55.12C69.3399 55.12 68.5299 49.03 75.2399 47.83C75.2399 47.83 86.1499 43.17 86.0299 55.12V71.99C86.0299 74.21 86.2999 76.42 86.8399 78.59C87.6899 82.03 88.4199 87.16 84.5399 85.08C84.5399 85.08 71.8899 81.88 72.7199 87.37C72.7199 87.37 72.4899 89.98 81.1899 87.51C81.1899 87.51 89.1499 84.47 87.2099 95.2V124.48H71.3899C71.3899 124.48 72.0199 104.18 69.8799 93.04C69.4099 90.58 69.1699 88.09 69.1699 85.6V62.37L69.3599 55.12H69.3399Z" stroke="#1E2C30" stroke-width="2" stroke-miterlimit="10"/>
<path d="M71.0499 92.88C70.7999 92.74 70.8799 92.34 71.1899 92.19L72.0199 91.8C72.3599 91.64 72.4099 91.19 72.0999 91.09L71.2199 90.8C70.9199 90.7 70.9599 90.27 71.2799 90.1L72.1499 89.62C72.4599 89.45 72.4999 89.03 72.2099 88.92L71.2599 88.58C70.9799 88.48 70.9899 88.11 71.2799 87.91L72.2899 87.2C72.5399 87.02 72.5399 86.7 72.2899 86.63L71.2799 86.34C70.9999 86.26 70.9899 85.9 71.2599 85.69L72.1999 84.98C72.4899 84.76 72.4499 84.36 72.1399 84.32L71.2699 84.2C70.9499 84.16 70.9199 83.75 71.2099 83.54L72.0899 82.91C72.3999 82.69 72.3399 82.26 72.0099 82.24L71.1799 82.19C70.8799 82.17 70.7899 81.81 71.0399 81.57L71.7699 80.82C71.9799 80.6 71.7699 80.34 71.4999 80.48C68.4499 82.12 65.0699 83.95 61.2899 85.42C60.6299 85.68 60.1499 86.29 60.1499 86.89V92.06C60.1499 92.66 60.6299 93.08 61.2899 93.07C65.1199 93 68.5299 93.48 71.6199 93.89C71.8899 93.93 72.0999 93.58 71.8899 93.44L71.0499 92.89V92.88Z" fill="#1E2C30"/>
<path d="M72.2999 86.64L60.1499 89.25V89.5L72.3099 87.2C72.5499 87.02 72.5499 86.71 72.3099 86.64H72.2999Z" fill="#7A9CA5"/>
<path d="M71.4499 84.95C71.7699 84.83 72.0799 84.7 72.3899 84.56C72.3699 84.44 72.2799 84.35 72.1399 84.33L71.7099 84.27C71.6199 84.31 71.5299 84.34 71.4399 84.38C69.2899 85.24 67.1599 85.96 65.0999 86.52C63.4299 86.97 61.7899 87.36 60.1399 87.79V88C61.7999 87.64 63.4399 87.32 65.0999 86.94C67.1699 86.46 69.2999 85.79 71.4399 84.95H71.4499Z" fill="#7A9CA5"/>
<path d="M71.4499 82.94C71.7299 82.82 72.0099 82.7 72.2899 82.58C72.3099 82.41 72.2099 82.25 72.0099 82.24H71.8299C71.6999 82.28 71.5799 82.34 71.4499 82.39C69.2999 83.3 67.1699 84.16 65.1099 84.93C63.4399 85.55 61.7999 86.14 60.1499 86.75V86.96C61.8099 86.41 63.4499 85.9 65.1099 85.34C67.1799 84.65 69.3099 83.84 71.4499 82.95V82.94Z" fill="#7A9CA5"/>
<path d="M71.6599 91.97L72.0099 91.8C72.1699 91.72 72.2699 91.57 72.2899 91.43C72.0099 91.43 71.7299 91.42 71.4499 91.41C69.2999 91.38 67.1699 91.44 65.1099 91.58C63.4399 91.69 61.7999 91.84 60.1499 91.96V92.17C61.8099 92.11 63.4499 92.04 65.1099 91.99C67.1799 91.93 69.3099 91.92 71.4499 91.96C71.5199 91.96 71.5899 91.96 71.6599 91.96V91.97Z" fill="#7A9CA5"/>
<path d="M71.4499 89.98C71.4499 89.98 71.4799 89.98 71.4999 89.98L72.1499 89.63C72.2399 89.58 72.3099 89.5 72.3499 89.42C72.0499 89.42 71.7499 89.42 71.4499 89.42C69.2999 89.45 67.1699 89.64 65.1099 89.99C63.4399 90.28 61.7999 90.63 60.1499 90.93V91.14C61.8099 90.9 63.4499 90.63 65.1099 90.4C67.1799 90.12 69.3099 89.98 71.4499 89.97V89.98Z" fill="#7A9CA5"/>
<path d="M71.0798 71.94C70.8298 71.7 70.9098 71.33 71.2198 71.31L72.0498 71.23C72.3898 71.2 72.4398 70.77 72.1298 70.55L71.2498 69.93C70.9498 69.72 70.9898 69.3 71.3098 69.25L72.1798 69.11C72.4898 69.06 72.5298 68.65 72.2398 68.44L71.2898 67.74C71.0098 67.53 71.0298 67.12 71.3098 67.02L72.2498 66.67C72.5398 66.56 72.4998 66.15 72.1898 65.99L71.3198 65.54C70.9998 65.37 70.9698 64.95 71.2598 64.85L72.1398 64.55C72.4498 64.45 72.3898 64 72.0598 63.85L71.2298 63.48C70.9298 63.34 70.8398 62.95 71.0898 62.81L72.1098 62.14C72.2598 62.04 72.1098 61.81 71.9198 61.83C68.7598 62.32 65.2698 62.62 61.3198 62.64C60.6598 62.64 60.1798 63.07 60.1798 63.67V67.2C60.1698 67.8 60.6398 68.4 61.3098 68.65C65.2998 70.11 68.8298 71.71 72.0098 73.35C72.1998 73.45 72.3398 73.26 72.1998 73.11L71.0698 71.94H71.0798Z" fill="#1E2C30"/>
<path d="M71.5399 70.67C69.3699 69.82 67.2199 69.05 65.1399 68.4C63.4799 67.88 61.8399 67.4 60.1899 66.89V67.1C61.8399 67.67 63.4799 68.23 65.1399 68.81C67.2199 69.54 69.3799 70.35 71.5399 71.22C71.5799 71.24 71.6199 71.25 71.6499 71.27L72.0399 71.23C72.1999 71.22 72.2899 71.11 72.3199 70.99C72.0599 70.88 71.7999 70.78 71.5399 70.67Z" fill="#7A9CA5"/>
<path d="M60.1899 65.83V66.05C61.8299 66.44 63.4599 66.79 65.1099 67.2C66.6899 67.59 69.9199 68.35 72.2999 69.05C72.4699 68.95 72.4899 68.7 72.3399 68.51C69.9499 67.83 66.6999 67.11 65.0999 66.78C63.4499 66.43 61.8199 66.16 60.1799 65.83H60.1899Z" fill="#7A9CA5"/>
<path d="M65.0999 65.78C66.6799 66.02 69.8699 66.47 72.2499 66.66C72.4699 66.58 72.4999 66.31 72.3499 66.12C69.9599 65.96 66.6899 65.54 65.0899 65.36C63.4399 65.17 61.8199 64.93 60.1799 64.73V64.95C61.8199 65.22 63.4399 65.53 65.0899 65.78H65.0999Z" fill="#7A9CA5"/>
<path d="M60.1899 63.9C61.8399 63.99 63.4799 64.1 65.1499 64.18C67.2299 64.28 69.3899 64.3 71.5499 64.23C71.8099 64.23 72.0799 64.21 72.3399 64.2C72.3199 64.06 72.2299 63.91 72.0599 63.84L71.6999 63.68C71.6999 63.68 71.5999 63.68 71.5499 63.68C69.3799 63.77 67.2299 63.8 65.1499 63.77C63.4899 63.75 61.8499 63.71 60.1899 63.68V63.89V63.9Z" fill="#7A9CA5"/>
<path d="M64.4599 71.4C65.1699 79.21 64.3999 79.96 64.3999 82.82L64.4599 71.4Z" fill="#7A9CA5"/>
<path d="M64.46 73.9C64.59 75.38 64.7 76.87 64.74 78.36C64.74 78.41 64.74 78.46 64.74 78.51C64.74 77.96 64.74 77.4 64.74 76.85C64.74 75.27 64.74 74.8 64.74 75.43C64.74 75.36 64.74 75.39 64.74 75.5C64.74 75.7 64.73 75.9 64.72 76.1C64.7 76.44 64.68 76.79 64.65 77.13C64.49 78.82 64.39 80.45 64.38 82.15C64.38 83.17 64.32 84.21 64.4 85.23C64.42 85.51 64.42 84.91 64.42 84.98C64.42 84.48 64.43 83.98 64.43 83.49C64.42 84.77 64.41 85.16 64.43 84.66C64.43 84.78 64.43 84.79 64.43 84.68C64.43 84.61 64.43 84.53 64.43 84.46C64.43 84.3 64.45 84.14 64.46 83.98C64.49 83.66 64.52 83.34 64.56 83.02C64.64 82.26 64.71 81.5 64.75 80.73C64.92 76.8 64.82 72.83 64.47 68.91C64.54 69.72 64.44 70.59 64.45 71.41C64.46 72.23 64.4 73.08 64.47 73.91L64.46 73.9Z" fill="#7A9CA5"/>
<path d="M63.2599 70.65C63.9699 79.81 63.2 80.69 63.2 84.04L63.2599 70.65Z" fill="#7A9CA5"/>
<path d="M63.26 73.15C63.39 74.88 63.49 76.6 63.54 78.34C63.54 78.52 63.54 78.56 63.54 78.47C63.53 77.62 63.53 76.77 63.54 75.92C63.54 75.88 63.55 75.64 63.54 75.92C63.54 76.16 63.53 76.39 63.51 76.63C63.49 77.04 63.47 77.45 63.43 77.86C63.28 79.71 63.17 81.52 63.17 83.38C63.17 84.37 63.02 85.48 63.19 86.46C63.23 86.72 63.21 86.17 63.21 86.21C63.22 85.71 63.22 85.21 63.22 84.72C63.22 86.98 63.22 85.52 63.26 84.88C63.29 84.5 63.32 84.12 63.36 83.74C63.44 82.87 63.51 81.99 63.54 81.12C63.69 76.8 63.59 72.47 63.26 68.16C63.39 69.81 63.13 71.5 63.26 73.16V73.15Z" fill="#7A9CA5"/>
<path d="M60.8701 71.4C60.1601 79.21 60.9301 79.96 60.9301 82.82L60.8701 71.4Z" fill="#7A9CA5"/>
<path d="M60.8699 68.9C60.5199 72.82 60.4199 76.79 60.5899 80.72C60.6199 81.48 60.6999 82.25 60.7799 83.01C60.8099 83.33 60.8499 83.65 60.8799 83.97C60.8899 84.12 60.8999 84.26 60.9099 84.41C60.9099 84.5 60.9099 84.58 60.9199 84.67C60.9199 84.78 60.9199 84.77 60.9199 84.65C60.9199 85.15 60.9199 84.75 60.9199 83.48C60.9199 83.98 60.9199 84.48 60.9299 84.97C60.9299 84.83 60.9299 85.54 60.9499 85.22C61.0299 84.21 60.9699 83.16 60.9699 82.14C60.9699 80.44 60.8599 78.8 60.6999 77.12C60.6699 76.78 60.6399 76.43 60.6299 76.09C60.6199 75.89 60.6099 75.69 60.6099 75.49C60.6099 75.33 60.6099 75.46 60.6099 75.3C60.6299 76.37 60.6299 77.43 60.6099 78.5V78.36C60.6499 76.87 60.7599 75.38 60.8899 73.89C60.9599 73.07 60.9199 72.22 60.9099 71.39C60.8999 70.56 60.8099 69.71 60.8899 68.89L60.8699 68.9Z" fill="#7A9CA5"/>
<path d="M62.08 70.65C61.37 79.81 62.14 80.69 62.14 84.04L62.08 70.65Z" fill="#7A9CA5"/>
<path d="M62.08 68.15C61.75 72.46 61.64 76.79 61.8 81.11C61.83 81.99 61.9 82.86 61.98 83.73C62.01 84.11 62.05 84.49 62.08 84.87C62.13 85.51 62.13 86.98 62.12 84.71C62.12 85.21 62.12 85.71 62.13 86.2C62.13 86.41 62.09 86.57 62.15 86.45C62.28 86.2 62.16 85.55 62.16 85.3C62.16 84.66 62.16 84.02 62.16 83.37C62.16 81.51 62.04 79.7 61.9 77.85C61.87 77.44 61.84 77.03 61.82 76.62C61.81 76.38 61.8 76.15 61.79 75.91C61.79 75.71 61.79 75.76 61.79 75.91C61.78 75.69 61.77 79.19 61.79 78.33C61.84 76.6 61.94 74.87 62.07 73.14C62.2 71.41 61.94 69.79 62.07 68.14L62.08 68.15Z" fill="#7A9CA5"/>
</g>
<defs>
<clipPath id="clip0_237_231">
<rect width="141.03" height="125.48" fill="white"/>
</clipPath>
</defs>
</svg>
