<svg width="142" height="124" viewBox="0 0 142 124" fill="none" xmlns="http://www.w3.org/2000/svg">
<g clip-path="url(#clip0_237_306)">
<path d="M70.52 112.03L70.26 111.88C62.65 107.31 44.22 95.3 37.52 82.4C36.52 80.6 35.62 78.76 34.85 76.94L34.55 76.23L48.89 76.57C49.16 76.57 49.49 76.4 49.62 76.12L51.21 72.74L56.01 97.13C56.09 97.52 56.82 97.77 56.82 97.77C56.82 97.77 57.53 97.45 57.57 97.06L61.63 58.59L64.11 77.62C64.15 77.96 64.41 78.23 64.74 78.29C65.07 78.35 65.41 78.2 65.58 77.91L67.83 73.95L69.91 76.41C70.06 76.59 70.28 76.69 70.51 76.69H80.61C80.98 76.69 81.3 76.44 81.38 76.08L83.89 65.25L86.92 83.58C86.98 83.94 87.29 84.22 87.66 84.24C87.99 84.24 88.36 84.01 88.46 83.66L91.13 73.75L92.12 76.2C92.24 76.5 92.53 76.69 92.85 76.69L106.31 76.59L106.01 77.29C105.27 79.01 104.42 80.73 103.48 82.43C96.79 95.32 78.36 107.33 70.75 111.9L70.49 112.05L70.52 112.03ZM36.08 77.26C36.76 78.82 37.54 80.38 38.4 81.93C44.91 94.48 62.82 106.24 70.51 110.87C78.2 106.24 96.11 94.48 102.62 81.94C103.42 80.5 104.15 79.04 104.8 77.59L92.88 77.68C92.23 77.68 91.67 77.36 91.35 76.84L89.45 83.91C89.23 84.72 87.62 85.57 87.62 85.57C87.62 85.57 86.09 84.57 85.95 83.74L83.74 70.38L82.36 76.3C82.17 77.11 81.45 77.68 80.62 77.68H70.52C69.99 77.68 69.49 77.45 69.15 77.05L67.99 75.68L66.45 78.39C66.07 79.06 65.31 79.42 64.55 79.26C63.79 79.11 63.22 78.5 63.12 77.74L61.74 67.12L58.61 96.26C58.53 97.03 57.26 98.37 56.94 98.69C56.9 98.73 56.84 98.74 56.79 98.69C56.44 98.38 55.01 97.07 54.86 96.3L50.81 75.91L50.52 76.53C50.22 77.17 49.57 77.54 48.86 77.56L36.07 77.26H36.08ZM56.56 91.69L52.3 70.06C52.23 69.72 51.96 69.47 51.62 69.43C51.28 69.39 50.95 69.57 50.81 69.88L48.42 74.98L33.95 74.64L33.83 74.32C29.48 62.15 30.9 51.26 37.63 45.21C41.96 41.31 48.49 39.54 54.67 40.57C61.21 41.66 66.8 45.67 70.52 51.9C74.23 45.67 79.83 41.66 86.37 40.57C92.55 39.54 99.08 41.32 103.41 45.21C110.22 51.34 111.59 62.36 107.08 74.68L106.96 75.01L93.41 75.11L91.74 70.98C91.61 70.67 91.29 70.47 90.96 70.49C90.62 70.51 90.34 70.75 90.25 71.07L87.92 79.73L84.83 61.07C84.77 60.7 84.45 60.42 84.08 60.41C83.72 60.36 83.37 60.65 83.29 61.02L80.02 75.11H70.91L68.34 72.06C68.17 71.86 67.92 71.76 67.66 71.78C67.4 71.8 67.17 71.95 67.05 72.18L65.4 75.08L62.36 51.76C62.31 51.37 61.97 51.07 61.58 51.07H61.57C61.17 51.07 60.84 51.38 60.79 51.78L56.57 91.71L56.56 91.69ZM51.58 67.11C52.43 67.11 53.13 69.1 53.28 69.86L56.26 84.99L59.78 51.65C59.86 50.85 61.18 50.04 61.48 49.87C61.52 49.85 61.56 49.85 61.6 49.87C61.9 50.04 63.23 50.82 63.34 51.61L66 71.97L66.17 71.67C66.46 71.16 66.98 70.83 67.56 70.77C68.14 70.72 68.72 70.95 69.09 71.4L71.36 74.09H79.21L82.3 60.78C82.47 60.04 83.81 59.09 84.07 58.9C84.1 58.88 84.13 58.88 84.16 58.9C84.41 59.1 85.68 60.13 85.8 60.89L88.13 75L89.26 70.79C89.42 70.18 90.45 69.23 90.81 68.9C90.89 68.83 91 68.83 91.08 68.9C91.44 69.19 92.41 70.02 92.64 70.59L94.06 74.09L106.23 74C110.46 62.2 109.15 51.73 102.71 45.94C98.6 42.24 92.39 40.56 86.51 41.54C80.02 42.62 74.49 46.74 70.93 53.13L70.49 53.92L70.05 53.13C66.5 46.74 60.97 42.62 54.48 41.54C48.59 40.56 42.39 42.24 38.28 45.94C31.92 51.66 30.57 62 34.64 73.65L47.77 73.96L49.88 69.45C50.18 68.82 50.87 67.11 51.56 67.11H51.58Z" fill="#1E2C30" stroke="#1E2C30" stroke-width="0.75" stroke-miterlimit="10"/>
<path d="M20.7118 120.017L20.7196 120.026L20.7278 120.035L23.8699 123.336L19.6089 123.321L18.4482 121.983C6.87823 108.605 0.5 91.3222 0.5 73.31C0.5 33.1476 31.9243 0.5 70.52 0.5C109.106 0.5 140.53 33.1476 140.55 73.3102C140.55 91.3323 134.172 108.616 122.602 121.993L121.441 123.331L117.17 123.354L120.313 120.044L120.321 120.036L120.328 120.027C131.428 107.194 137.54 90.5975 137.54 73.31C137.54 34.8334 107.495 3.5 70.52 3.5C33.5447 3.5 3.5 34.8334 3.5 73.3C3.5 90.5875 9.61158 107.184 20.7118 120.017Z" fill="#1E2C30" stroke="#1E2C30"/>
</g>
<defs>
<clipPath id="clip0_237_306">
<rect width="141.03" height="123.86" fill="white"/>
</clipPath>
</defs>
</svg>
