<svg width="142" height="125" viewBox="0 0 142 125" fill="none" xmlns="http://www.w3.org/2000/svg">
<g clip-path="url(#clip0_237_295)">
<path d="M121.66 124.552L115.99 124.582L119.94 120.422C130.96 107.682 137.03 91.2022 137.03 74.0322C137.03 35.8122 107.19 4.72217 70.51 4.72217C33.83 4.72217 4 35.8122 4 74.0322C4 91.2022 10.07 107.672 21.09 120.422L25.04 124.572L19.38 124.552L18.07 123.042C6.42 109.572 0 92.1622 0 74.0322C0 33.6122 31.63 0.722168 70.52 0.722168C109.41 0.722168 141.04 33.6122 141.04 74.0322C141.04 92.1622 134.62 109.572 122.97 123.042L121.66 124.552Z" fill="#1E2C30"/>
<path d="M88.1101 102.042C70.7201 102.022 61.5401 102.052 48.5601 102.042C43.4801 102.042 39.3501 98.4122 39.3501 93.9422V91.3722C39.3501 88.5522 41.0701 85.8922 43.8301 84.4322C45.2601 83.6722 46.8901 83.2722 48.5501 83.2722H100.13C100.32 83.2722 100.32 82.5222 100.13 82.5222H48.5501C45.7601 82.5222 40.4501 82.5222 37.6501 82.5222C32.5701 82.5222 28.4401 78.8922 28.4401 74.4222V71.8622C28.4401 67.4022 32.5701 63.7622 37.6501 63.7622C49.5601 63.7422 67.9501 63.7822 87.4001 63.7622C87.5901 63.7622 87.5901 63.0122 87.4001 63.0122H49.1801C48.3101 63.0122 47.4501 62.9022 46.6401 62.6922C42.7201 61.6922 39.9801 58.4922 39.9801 54.9122V52.3422C39.9801 47.8822 44.1101 44.2422 49.1901 44.2422H67.2101C67.5001 44.2422 67.7401 44.0022 67.7401 43.7122V34.4822V33.7322H66.8801V42.9622C66.8801 43.2522 66.6401 43.4922 66.3501 43.4922H49.1901C43.6401 43.4922 39.1301 47.4622 39.1301 52.3422V54.9122C39.1301 57.7622 40.7201 60.3922 43.2401 62.0322C43.6901 62.3222 43.4901 63.0122 42.9601 63.0122H37.6601C32.1101 63.0122 27.6001 66.9822 27.6001 71.8622V74.4222C27.6001 79.3022 32.1101 83.2722 37.6601 83.2722H43.1901V83.9122C40.3001 85.5322 38.5001 88.3622 38.5001 91.3722V93.9422C38.5001 98.8222 43.0101 102.792 48.5601 102.792H58.1501C58.6601 102.792 58.8701 103.432 58.4601 103.742C56.8501 105.002 55.8501 106.822 55.8501 108.822V120.942H56.7101V108.822C56.6401 105.502 60.0001 102.712 63.5701 102.782C63.5701 102.782 76.9001 102.782 88.1001 102.782C88.2901 102.782 88.2901 102.032 88.1001 102.032L88.1101 102.042Z" fill="#1E2C30" stroke="#1E2C30" stroke-miterlimit="10" stroke-linecap="round"/>
<path d="M102.31 72.7822H94.0602C97.4402 71.5422 100.16 68.1922 100.08 64.6822V62.1122C100.08 58.4222 97.4202 55.0822 93.4602 53.8022C91.1502 52.8022 80.7302 53.4222 78.1402 53.2622C80.6202 52.1322 82.3302 49.8522 82.3302 47.2322V33.7422H81.4702V47.2322C81.4702 50.5522 78.4002 53.2522 74.6202 53.2622H48.8702C48.6802 53.2622 48.6802 54.0122 48.8702 54.0122H74.6002C77.0202 54.1822 91.1502 53.5522 93.1502 54.5122C96.7802 55.6822 99.2102 58.7322 99.2102 62.1122V64.6822C99.2802 69.3022 94.5602 72.9022 90.0002 72.7822C90.0002 72.7822 48.3102 72.7822 36.0302 72.7822C35.8402 72.7822 35.8402 73.5322 36.0302 73.5322H90.0102H102.3C107.38 73.5322 111.51 77.1622 111.51 81.6322V84.2022C111.51 88.6622 107.38 92.3022 102.3 92.3022H96.2702C90.1802 92.3022 63.1502 92.3022 49.1902 92.3022C49.0002 92.3022 49.0002 93.0522 49.1902 93.0522H90.0102C94.5402 92.9022 99.3302 96.5522 99.2202 101.152V103.712C99.2202 108.172 95.0902 111.812 90.0102 111.812H70.8502C70.6302 111.812 70.4602 111.982 70.4602 112.202L70.4402 120.202V120.952H71.3002V112.542C71.4702 112.542 90.0102 112.552 90.0102 112.552C95.5602 112.552 100.07 108.582 100.07 103.702V101.142C100.07 98.4322 98.6802 95.9322 96.2602 94.2322V93.0422H102.3C107.85 93.0422 112.36 89.0722 112.36 84.1922V81.6222C112.36 76.7422 107.85 72.7722 102.3 72.7722L102.31 72.7822Z" fill="#1E2C30" stroke="#1E2C30" stroke-miterlimit="10" stroke-linecap="round"/>
<mask id="path-4-inside-1_237_295" fill="white">
<path d="M94.31 57.4221L92.77 58.9721L91.22 57.4221L90.73 57.9221L92.27 59.4621L90.73 61.0121L91.22 61.5021L92.77 59.9521L94.31 61.5021L94.8 61.0121L93.26 59.4621L94.8 57.9221L94.31 57.4221Z"/>
</mask>
<path d="M94.31 57.4221L92.77 58.9721L91.22 57.4221L90.73 57.9221L92.27 59.4621L90.73 61.0121L91.22 61.5021L92.77 59.9521L94.31 61.5021L94.8 61.0121L93.26 59.4621L94.8 57.9221L94.31 57.4221Z" fill="#1E2C30"/>
<path d="M94.31 57.4221L95.0242 56.7222L94.3149 55.9984L93.6006 56.7173L94.31 57.4221ZM92.77 58.9721L92.0629 59.6792L92.7723 60.3886L93.4794 59.6769L92.77 58.9721ZM91.22 57.4221L91.9271 56.715L91.2128 56.0007L90.5058 56.7222L91.22 57.4221ZM90.73 57.9221L90.0158 57.2222L89.3229 57.9292L90.0229 58.6292L90.73 57.9221ZM92.27 59.4621L92.9794 60.1669L93.6819 59.4598L92.9771 58.755L92.27 59.4621ZM90.73 61.0121L90.0206 60.3073L89.3181 61.0144L90.0229 61.7192L90.73 61.0121ZM91.22 61.5021L90.5129 62.2092L91.22 62.9163L91.9271 62.2092L91.22 61.5021ZM92.77 59.9521L93.4794 59.2473L92.7723 58.5356L92.0629 59.245L92.77 59.9521ZM94.31 61.5021L93.6006 62.2069L94.3077 62.9186L95.0171 62.2092L94.31 61.5021ZM94.8 61.0121L95.5071 61.7192L96.2119 61.0144L95.5094 60.3073L94.8 61.0121ZM93.26 59.4621L92.5529 58.755L91.848 59.4598L92.5506 60.1669L93.26 59.4621ZM94.8 57.9221L95.5071 58.6292L96.2071 57.9292L95.5142 57.2222L94.8 57.9221ZM93.6006 56.7173L92.0606 58.2673L93.4794 59.6769L95.0194 58.1269L93.6006 56.7173ZM93.4771 58.265L91.9271 56.715L90.5129 58.1292L92.0629 59.6792L93.4771 58.265ZM90.5058 56.7222L90.0158 57.2222L91.4442 58.622L91.9342 58.122L90.5058 56.7222ZM90.0229 58.6292L91.5629 60.1692L92.9771 58.755L91.4371 57.215L90.0229 58.6292ZM91.5606 58.7573L90.0206 60.3073L91.4394 61.7169L92.9794 60.1669L91.5606 58.7573ZM90.0229 61.7192L90.5129 62.2092L91.9271 60.795L91.4371 60.305L90.0229 61.7192ZM91.9271 62.2092L93.4771 60.6592L92.0629 59.245L90.5129 60.795L91.9271 62.2092ZM92.0606 60.6569L93.6006 62.2069L95.0194 60.7973L93.4794 59.2473L92.0606 60.6569ZM95.0171 62.2092L95.5071 61.7192L94.0929 60.305L93.6029 60.795L95.0171 62.2092ZM95.5094 60.3073L93.9694 58.7573L92.5506 60.1669L94.0906 61.7169L95.5094 60.3073ZM93.9671 60.1692L95.5071 58.6292L94.0929 57.215L92.5529 58.755L93.9671 60.1692ZM95.5142 57.2222L95.0242 56.7222L93.5958 58.1221L94.0858 58.6221L95.5142 57.2222Z" fill="#1E2C30" mask="url(#path-4-inside-1_237_295)"/>
<mask id="path-6-inside-2_237_295" fill="white">
<path d="M102.84 64.1221L102.52 64.3721L102.44 63.5321C103.31 62.9121 103.74 61.7321 103.64 60.1921C103.54 58.5921 102.88 56.8221 101.78 55.2121C100.69 53.6021 99.3 52.3521 97.87 51.6921C96.5 51.0621 95.26 51.0521 94.39 51.6621L93.73 51.2621L93.98 51.0721C95.06 50.3021 96.54 50.2921 98.15 51.0321C99.7 51.7421 101.19 53.0821 102.35 54.8021C103.51 56.5221 104.22 58.4121 104.33 60.1421C104.45 61.9421 103.91 63.3521 102.83 64.1221H102.84Z"/>
</mask>
<path d="M102.84 64.1221L102.52 64.3721L102.44 63.5321C103.31 62.9121 103.74 61.7321 103.64 60.1921C103.54 58.5921 102.88 56.8221 101.78 55.2121C100.69 53.6021 99.3 52.3521 97.87 51.6921C96.5 51.0621 95.26 51.0521 94.39 51.6621L93.73 51.2621L93.98 51.0721C95.06 50.3021 96.54 50.2921 98.15 51.0321C99.7 51.7421 101.19 53.0821 102.35 54.8021C103.51 56.5221 104.22 58.4121 104.33 60.1421C104.45 61.9421 103.91 63.3521 102.83 64.1221H102.84Z" fill="#1E2C30"/>
<path d="M102.84 64.1221L103.456 64.9101L105.744 63.1221H102.84V64.1221ZM102.52 64.3721L101.524 64.4669L101.697 66.2837L103.136 65.1601L102.52 64.3721ZM102.44 63.5321L101.86 62.7178L101.39 63.0526L101.444 63.6269L102.44 63.5321ZM103.64 60.1921L102.642 60.2545L102.642 60.2569L103.64 60.1921ZM101.78 55.2121L100.952 55.7728L100.954 55.7763L101.78 55.2121ZM97.87 51.6921L98.289 50.7842L98.2878 50.7836L97.87 51.6921ZM94.39 51.6621L93.8717 52.5173L94.4298 52.8555L94.9641 52.4809L94.39 51.6621ZM93.73 51.2621L93.1249 50.466L91.9546 51.3554L93.2117 52.1173L93.73 51.2621ZM93.98 51.0721L93.3995 50.2579L93.387 50.2667L93.3749 50.276L93.98 51.0721ZM98.15 51.0321L97.7324 51.9407L97.7335 51.9413L98.15 51.0321ZM104.33 60.1421L103.332 60.2056L103.332 60.2086L104.33 60.1421ZM102.83 64.1221L102.249 63.3079L99.7048 65.1221H102.83V64.1221ZM102.224 63.3341L101.904 63.5841L103.136 65.1601L103.456 64.9101L102.224 63.3341ZM103.515 64.2773L103.435 63.4373L101.444 63.6269L101.524 64.4669L103.515 64.2773ZM103.02 64.3465C104.283 63.447 104.75 61.852 104.638 60.1273L102.642 60.2569C102.73 61.6122 102.337 62.3773 101.86 62.7178L103.02 64.3465ZM104.638 60.1297C104.525 58.3153 103.786 56.3751 102.606 54.648L100.954 55.7763C101.974 57.2692 102.555 58.8689 102.642 60.2545L104.638 60.1297ZM102.608 54.6515C101.439 52.9253 99.9188 51.5363 98.289 50.7842L97.4509 52.6001C98.6812 53.1679 99.9406 54.2789 100.952 55.7727L102.608 54.6515ZM98.2878 50.7836C96.7442 50.0738 95.0904 49.9497 93.8159 50.8433L94.9641 52.4809C95.4295 52.1546 96.2557 52.0505 97.4522 52.6007L98.2878 50.7836ZM94.9083 50.8069L94.2483 50.4069L93.2117 52.1173L93.8717 52.5173L94.9083 50.8069ZM94.3351 52.0583L94.5851 51.8683L93.3749 50.276L93.1249 50.466L94.3351 52.0583ZM94.5605 51.8864C95.2496 51.3951 96.3197 51.2914 97.7324 51.9407L98.5676 50.1235C96.7603 49.2928 94.8704 49.2092 93.3995 50.2579L94.5605 51.8864ZM97.7335 51.9413C99.0827 52.5593 100.441 53.7596 101.521 55.3613L103.179 54.243C101.939 52.4047 100.317 50.925 98.5664 50.123L97.7335 51.9413ZM101.521 55.3613C102.604 56.9674 103.236 58.6892 103.332 60.2056L105.328 60.0787C105.204 58.135 104.416 56.0768 103.179 54.243L101.521 55.3613ZM103.332 60.2086C103.438 61.7941 102.954 62.8055 102.249 63.3079L103.411 64.9364C104.866 63.8988 105.462 62.0901 105.328 60.0756L103.332 60.2086ZM102.83 65.1221H102.84V63.1221H102.83V65.1221Z" fill="#1E2C30" mask="url(#path-6-inside-2_237_295)"/>
</g>
<defs>
<clipPath id="clip0_237_295">
<rect width="141.03" height="123.86" fill="white" transform="translate(0 0.722168)"/>
</clipPath>
</defs>
</svg>
