<svg width="142" height="124" viewBox="0 0 142 124" fill="none" xmlns="http://www.w3.org/2000/svg">
<g clip-path="url(#clip0_237_219)">
<path d="M20.7118 120.017L20.7196 120.026L20.7278 120.035L23.8699 123.336L19.6089 123.321L18.4482 121.983C6.87823 108.605 0.5 91.3222 0.5 73.31C0.5 33.1476 31.9243 0.5 70.52 0.5C109.106 0.5 140.53 33.1476 140.55 73.3102C140.55 91.3323 134.172 108.616 122.602 121.993L121.441 123.331L117.17 123.354L120.313 120.044L120.321 120.036L120.328 120.027C131.428 107.194 137.54 90.5975 137.54 73.31C137.54 34.8334 107.495 3.5 70.52 3.5C33.5447 3.5 3.5 34.8334 3.5 73.3C3.5 90.5875 9.61158 107.184 20.7118 120.017Z" fill="#1E2C30" stroke="#1E2C30"/>
<mask id="path-2-inside-1_237_219" fill="white">
<path d="M101.06 50.27L102.24 52.15L101.91 50.37L101.78 50C99.2198 42.37 90.4998 41.04 90.4998 41.04L88.7998 40.93L90.3098 41.8C90.3098 41.8 98.6498 43.09 101.06 50.26V50.27Z"/>
</mask>
<path d="M101.06 50.27L102.24 52.15L101.91 50.37L101.78 50C99.2198 42.37 90.4998 41.04 90.4998 41.04L88.7998 40.93L90.3098 41.8C90.3098 41.8 98.6498 43.09 101.06 50.26V50.27Z" fill="#1E2C30"/>
<path d="M101.06 50.27H100.06V50.5578L100.213 50.8016L101.06 50.27ZM102.24 52.15L101.393 52.6816L103.223 51.9677L102.24 52.15ZM101.91 50.37L102.893 50.1877L102.879 50.1116L102.853 50.0385L101.91 50.37ZM101.78 50L100.832 50.3181L100.834 50.3248L100.836 50.3315L101.78 50ZM90.4998 41.04L90.6506 40.0514L90.6077 40.0449L90.5644 40.0421L90.4998 41.04ZM88.7998 40.93L88.8644 39.9321L88.3006 41.7965L88.7998 40.93ZM90.3098 41.8L89.8106 42.6665L89.9724 42.7597L90.1569 42.7882L90.3098 41.8ZM101.06 50.26H102.06V50.0964L102.008 49.9414L101.06 50.26ZM100.213 50.8016L101.393 52.6816L103.087 51.6184L101.907 49.7384L100.213 50.8016ZM103.223 51.9677L102.893 50.1877L100.927 50.5523L101.257 52.3323L103.223 51.9677ZM102.853 50.0385L102.723 49.6685L100.836 50.3315L100.966 50.7015L102.853 50.0385ZM102.728 49.6819C101.337 45.5358 98.2759 43.1271 95.6373 41.7695C94.3154 41.0894 93.0809 40.6626 92.1759 40.4052C91.7225 40.2762 91.3491 40.189 91.0856 40.1335C90.9537 40.1057 90.8491 40.0859 90.7754 40.0726C90.7386 40.066 90.7095 40.061 90.6885 40.0575C90.678 40.0558 90.6696 40.0544 90.6633 40.0534C90.6601 40.0529 90.6574 40.0525 90.6553 40.0522C90.6543 40.052 90.6533 40.0518 90.6526 40.0517C90.6522 40.0517 90.6517 40.0516 90.6515 40.0516C90.651 40.0515 90.6506 40.0514 90.4998 41.04C90.349 42.0286 90.3487 42.0285 90.3483 42.0285C90.3483 42.0284 90.348 42.0284 90.3478 42.0284C90.3476 42.0283 90.3475 42.0283 90.3475 42.0283C90.3475 42.0283 90.348 42.0284 90.349 42.0286C90.3511 42.0289 90.3552 42.0296 90.3613 42.0306C90.3735 42.0326 90.3936 42.036 90.4213 42.041C90.4766 42.0509 90.5618 42.0671 90.6734 42.0906C90.8967 42.1376 91.2246 42.2139 91.6287 42.3289C92.4387 42.5593 93.5442 42.9418 94.7223 43.548C97.0837 44.7629 99.6628 46.8342 100.832 50.3181L102.728 49.6819ZM90.5644 40.0421L88.8644 39.9321L88.7352 41.9279L90.4352 42.0379L90.5644 40.0421ZM88.3006 41.7965L89.8106 42.6665L90.809 40.9335L89.299 40.0635L88.3006 41.7965ZM90.3098 41.8C90.1569 42.7882 90.1566 42.7882 90.1563 42.7881C90.1562 42.7881 90.1559 42.7881 90.1558 42.7881C90.1555 42.788 90.1554 42.788 90.1554 42.788C90.1553 42.788 90.1558 42.7881 90.1568 42.7882C90.1587 42.7885 90.1626 42.7892 90.1683 42.7901C90.1799 42.7921 90.1991 42.7954 90.2254 42.8001C90.2781 42.8097 90.3593 42.8252 90.4657 42.8477C90.6787 42.8928 90.9916 42.9659 91.3771 43.0755C92.15 43.2952 93.2042 43.6588 94.3262 44.2318C96.5774 45.3816 99.0196 47.3289 100.112 50.5786L102.008 49.9414C100.69 46.0211 97.7572 43.7384 95.2359 42.4507C93.9716 41.805 92.7902 41.3979 91.924 41.1517C91.49 41.0283 91.1325 40.9446 90.88 40.8911C90.7537 40.8644 90.6534 40.8452 90.5827 40.8323C90.5474 40.8259 90.5194 40.8211 90.4992 40.8177C90.4892 40.816 90.481 40.8147 90.4749 40.8137C90.4719 40.8132 90.4693 40.8128 90.4673 40.8125C90.4662 40.8123 90.4653 40.8122 90.4646 40.812C90.4642 40.812 90.4637 40.8119 90.4635 40.8119C90.4631 40.8118 90.4627 40.8117 90.3098 41.8ZM100.06 50.26V50.27H102.06V50.26H100.06Z" fill="#1E2C30" mask="url(#path-2-inside-1_237_219)"/>
<path d="M71.1299 78.8576C71.0738 79.0814 71.0242 79.3065 70.9807 79.5326C71.0226 79.2745 71.0722 79.0178 71.1299 78.7629V78.8576Z" fill="#1E2C30" stroke="#1E2C30"/>
<path d="M97.9968 66.97H98.0097L97.7706 66.3016C97.291 64.9605 96.9309 63.5568 96.7562 62.1292L96.7556 62.1251C96.16 57.5756 93.9219 53.3672 90.5343 50.3183C90.5345 50.3185 90.5348 50.3187 90.535 50.3189L97.9968 66.97ZM97.9968 66.97C100.606 74.3628 108.138 95.9957 111.024 107.613C111.116 107.945 111.409 108.16 111.73 108.16C111.776 108.16 111.804 108.16 111.832 108.158C111.858 108.156 111.888 108.152 111.927 108.143C112.274 108.061 112.535 107.669 112.443 107.245C109.419 95.2205 101.51 72.481 99.1191 65.8087L99.1183 65.8062C98.6761 64.5516 98.3692 63.2299 98.1753 61.9234L98.1742 61.9161L98.1742 61.9161C97.5198 57.0125 95.1562 52.502 91.4867 49.2228L91.4847 49.2211L91.4285 49.1703C91.1337 48.9039 90.8316 48.631 90.522 48.376L90.5196 48.374C88.5384 46.7213 86.1425 45.6201 83.5737 45.2142C83.5731 45.2141 83.5725 45.214 83.5719 45.2139L82.7757 45.0945L82.7732 45.0941C82.1593 44.9988 81.5832 44.841 81.0302 44.6801L81.0204 44.6773L81.0205 44.6772C70.2179 41.2952 51.703 39.069 44.1918 38.2777C43.7887 38.2435 43.4279 38.5415 43.3871 38.932C43.3462 39.3242 43.6433 39.6911 44.0418 39.7327L44.0436 39.7329L44.0436 39.7329C51.4318 40.5316 69.9036 42.7054 80.5794 46.0529L80.5857 46.0549L80.5857 46.0549C81.1937 46.2544 81.8765 46.4091 82.5311 46.5266L83.324 46.6455L83.3317 46.6467L83.3317 46.6467C85.6488 47.0312 87.7773 48.0178 89.5912 49.4988L97.9968 66.97Z" fill="#1E2C30" stroke="#1E2C30"/>
<path d="M29.2106 76.5541L29.3172 76.5428C33.1899 76.1319 38.404 76.0893 43.7889 76.0453C45.0653 76.0348 46.3514 76.0243 47.6314 76.0088C54.3347 75.9275 60.8632 75.7091 65.1484 74.6798C68.0699 73.658 71.1009 73.1019 74.1701 72.9804L74.654 72.9612L74.6886 73.4442L75.0286 78.1842L75.0287 78.1857C75.2647 81.6175 76.0805 84.8592 77.4355 87.8639C80.7878 95.2759 86.4354 101.745 87.0536 102.453C87.0673 102.469 87.0785 102.482 87.0872 102.492L87.0944 102.5L87.0943 102.5C88.8089 104.562 90.5184 107.439 92.014 110.33L92.0172 110.336L92.0171 110.336C92.0248 110.352 92.0318 110.367 92.0383 110.381L92.0735 110.449C93.6432 113.468 94.9696 116.543 95.8801 118.684L95.8829 118.691L95.8855 118.698C95.9874 118.958 96.2569 119.14 96.5499 119.14C96.6321 119.14 96.7247 119.124 96.8128 119.09C97.1966 118.907 97.3441 118.492 97.1955 118.169L97.1919 118.161L97.1886 118.153C96.2732 115.964 94.9113 112.892 93.3222 109.822C93.308 109.798 93.2921 109.769 93.2794 109.747L93.2745 109.738C93.2559 109.704 93.2325 109.662 93.2048 109.612C93.1899 109.585 93.1737 109.556 93.1564 109.525C93.1025 109.427 93.0369 109.308 92.9618 109.172C92.8994 109.059 92.8304 108.934 92.7563 108.8C92.4292 108.208 91.9992 107.431 91.5713 106.667C91.1536 105.922 90.7397 105.193 90.4259 104.661L89.8854 103.86C89.316 103.015 88.7518 102.247 88.1923 101.589L88.1764 101.574C88.1195 101.517 86.6094 99.8103 84.6991 97.203C82.784 94.5892 80.4446 91.0405 78.7447 87.2967L78.7439 87.295C77.4697 84.4611 76.6851 81.3732 76.4711 78.1338L29.2106 76.5541ZM29.2106 76.5541C28.8568 76.5362 28.5938 76.2642 28.5794 75.9566L28.5789 75.9463L28.578 75.936C28.541 75.5165 28.8435 75.1621 29.2245 75.128L29.2245 75.128L29.2306 75.1274C33.2108 74.7215 38.6284 74.6677 44.1889 74.6124C45.3007 74.6013 46.4183 74.5902 47.5312 74.5762C54.1707 74.4927 60.6677 74.307 64.6566 73.3885C65.8592 73.1402 66.9396 72.8787 67.9407 72.6363C68.5117 72.4981 69.057 72.3661 69.5844 72.2463C71.0519 71.9132 72.4298 71.6625 73.9933 71.5894L74.5869 71.5617L74.458 70.9815C74.0383 69.0929 73.1896 67.5807 71.8743 66.4595L71.8743 66.4594L71.8686 66.4547C71.5683 66.2064 71.5254 65.7629 71.7852 65.4486C72.033 65.149 72.4754 65.1056 72.7895 65.3638C74.6546 66.9394 75.7666 69.2202 76.0699 72.1952V72.2V72.2169L76.0711 72.2338L76.471 78.1329L29.2106 76.5541Z" fill="#1E2C30" stroke="#1E2C30"/>
<path d="M89.4013 74.5653L89.4092 74.5719L89.4174 74.5781C89.417 74.5778 89.4172 74.578 89.418 74.5786C89.4225 74.5824 89.4456 74.6013 89.487 74.6396C89.5332 74.6824 89.5979 74.7451 89.6779 74.8294C89.8379 74.9978 90.0582 75.2511 90.3151 75.6015C90.8286 76.3017 91.4888 77.3907 92.1042 78.9657C93.3343 82.1141 94.3911 87.2199 93.7219 95.0652C93.6843 95.4573 93.3714 95.74 92.9999 95.74H92.9292C92.5412 95.6879 92.2555 95.3498 92.269 94.9511C92.8823 87.7076 91.9829 82.9245 90.9001 79.9288C90.3586 78.4307 89.7722 77.3825 89.3094 76.6999C89.078 76.3587 88.8776 76.109 88.7292 75.94C88.655 75.8557 88.5933 75.7908 88.5464 75.7443C88.5232 75.7212 88.5024 75.7014 88.4846 75.6852C88.4759 75.6774 88.4657 75.6684 88.4549 75.6595C88.4513 75.6565 88.4462 75.6523 88.44 75.6475C88.1646 75.4117 88.1233 74.9774 88.3952 74.6486C88.6435 74.3484 89.087 74.3055 89.4013 74.5653Z" fill="#1E2C30" stroke="#1E2C30"/>
<path d="M89.92 53.36C91.48 55.4 91.88 57.7 90.82 58.51C89.76 59.32 87.75 58.28 86.19 56.25C84.63 54.22 84.13 51.94 85.18 51.14C86.23 50.34 88.35 51.33 89.91 53.37L89.92 53.36Z" stroke="#1E2C30" stroke-miterlimit="10"/>
</g>
<defs>
<clipPath id="clip0_237_219">
<rect width="141.03" height="123.86" fill="white"/>
</clipPath>
</defs>
</svg>
