<svg width="67" height="67" viewBox="0 0 67 67" fill="none" xmlns="http://www.w3.org/2000/svg">
<g clip-path="url(#clip0_334_48)">
<path d="M63.5317 18.6228C63.4553 18.4686 63.3762 18.3144 63.2972 18.1602C63.1327 18.2393 62.972 18.3183 62.814 18.3947C62.3877 18.6033 61.9809 18.8055 61.6 19.0011C55.1674 22.2906 52.9688 21.5638 49.3269 20.3615C48.8903 20.2176 48.4394 20.0686 47.9562 19.9184C46.0102 19.3133 43.945 19.1358 42.2854 18.992C40.1619 18.808 38.4841 18.6629 38.339 17.7884C38.3053 17.5876 38.3002 17.4179 38.3222 17.2767C39.4519 17.2365 40.732 17.1367 41.8837 17.0279C42.0353 17.0162 42.1882 17.002 42.3437 16.9839C43.7753 16.8426 44.9323 16.6975 45.2134 16.6625C47.0596 17.2469 48.03 17.4684 50.6795 17.4684C53.329 17.4684 55.9357 19.5711 55.9629 19.5932L56.2816 19.1838C56.165 19.0931 53.3808 16.9502 50.6795 16.9502C47.9782 16.9502 47.1788 16.7429 45.3158 16.1521L45.2613 16.1352L45.2043 16.143C45.1719 16.1469 43.5939 16.349 41.7088 16.5239C40.4845 16.6042 39.4066 16.4799 38.3585 16.3594C37.5746 16.2687 36.8348 16.1832 36.0627 16.1832C35.3643 16.1832 34.9653 15.9085 34.8241 15.6507C34.736 15.4887 34.7373 15.3229 34.8267 15.1817C34.999 14.9135 35.4524 14.7788 36.0432 14.8215C38.1265 14.9692 40.3083 14.2955 43.9217 13.18L44.6913 12.9429C48.604 11.738 51.3597 12.47 51.3882 12.4778L51.5268 11.979C51.4089 11.9466 48.6078 11.1952 44.5397 12.448L43.7701 12.6851C40.215 13.7838 38.0695 14.4471 36.0821 14.3059C35.2892 14.2489 34.6725 14.4665 34.3927 14.9031C34.2009 15.2011 34.1931 15.5743 34.3706 15.9007C34.6453 16.4034 35.2775 16.7027 36.064 16.7027C36.5226 16.7027 36.9748 16.7351 37.4347 16.7804C36.9812 16.7817 36.5757 16.7688 36.2453 16.7364C35.1519 16.6276 34.0092 16.8387 32.904 17.0435C31.5372 17.2974 30.2468 17.5358 29.5329 17.0046C29.2621 16.8025 28.9499 16.5058 28.9991 16.2402C29.0574 15.9267 29.5873 15.424 31.7795 14.815C34.5468 14.0455 37.4088 13.2487 39.3042 12.1422L39.0451 11.6992C39.588 11.5515 40.114 11.4439 40.5972 11.3986C41.819 11.282 42.6585 11.0591 43.3996 10.8622C44.6446 10.5305 45.6293 10.2701 47.8318 10.699C49.0173 10.9296 54.1348 11.8494 57.8933 11.3273C58.1058 11.2975 58.3144 11.2638 58.5178 11.2237C58.3805 11.0695 58.2418 10.9179 58.1006 10.765C57.8039 10.4437 57.502 10.1276 57.1911 9.81666C50.8609 3.48513 42.4473 0 33.5 0C24.5527 0 16.1391 3.48513 9.81148 9.81148C3.48513 16.1391 0 24.5514 0 33.5C0 41.0092 2.45514 48.1414 6.98451 53.9806C7.09334 54.1206 7.20476 54.2605 7.31618 54.3991C7.48461 54.3214 7.65174 54.2436 7.81757 54.1672C9.11575 53.5648 10.3103 52.9895 11.3299 52.4674C17.7625 49.1779 19.9611 49.9047 23.603 51.107C24.0396 51.2508 24.4905 51.3998 24.9737 51.5501C26.9197 52.1552 28.9849 52.3327 30.6445 52.4765C32.768 52.6604 34.4458 52.8055 34.5909 53.6801C34.6246 53.8809 34.6298 54.0506 34.6077 54.1918C33.5 54.2307 32.2459 54.3279 31.1109 54.4341C30.9244 54.4471 30.7339 54.4652 30.5396 54.4898C29.1287 54.6297 27.995 54.771 27.7165 54.8059C25.8703 54.2216 24.8999 54.0001 22.2504 54.0001C19.6009 54.0001 16.9942 51.8973 16.967 51.8753L16.6483 52.2847C16.7649 52.3754 19.5491 54.5183 22.2504 54.5183C24.9517 54.5183 25.7511 54.7256 27.6141 55.3164L27.6686 55.3332L27.7256 55.3255C27.758 55.3216 29.3282 55.1208 31.2081 54.9459C32.4376 54.8642 33.5207 54.9886 34.5714 55.1104C35.3553 55.2011 36.0951 55.2866 36.8672 55.2866C37.5656 55.2866 37.9646 55.5613 38.1058 55.8191C38.1939 55.981 38.1926 56.1469 38.1032 56.2881C37.9309 56.5563 37.4762 56.691 36.8867 56.6483C34.8034 56.5006 32.6229 57.173 29.0108 58.2898L28.2399 58.5282C24.3259 59.7331 21.5715 59.001 21.543 58.9933L21.4744 59.2433L21.4044 59.4934C21.4692 59.5115 22.345 59.7473 23.7961 59.7473C24.9854 59.7473 26.5595 59.5892 28.3915 59.0257L29.1624 58.7873C32.7175 57.6886 34.8604 57.0253 36.8491 57.1678C37.642 57.2248 38.2587 57.0071 38.5385 56.5705C38.7303 56.2725 38.7381 55.8994 38.5606 55.5729C38.2859 55.0702 37.6537 54.771 36.8672 54.771C36.4073 54.771 35.9551 54.7386 35.4939 54.6932C35.9487 54.6919 36.3555 54.7049 36.6858 54.7386C37.7806 54.8487 38.922 54.6362 40.0272 54.4315C41.394 54.1776 42.6844 53.9392 43.3983 54.4704C43.6691 54.6725 43.9813 54.9692 43.9321 55.2348C43.8738 55.5483 43.3439 56.051 41.1517 56.6599C38.3844 57.4295 35.5224 58.225 33.627 59.3327L33.8861 59.7758C33.3432 59.9235 32.8172 60.0297 32.334 60.0764C31.1122 60.193 30.2727 60.4158 29.5316 60.6128C28.2866 60.9444 27.3032 61.2048 25.0994 60.776C23.831 60.5285 18.0579 59.4934 14.2696 60.2798C14.0338 60.329 13.8058 60.3847 13.5868 60.4482C13.7682 60.583 13.9509 60.7138 14.1349 60.8447C19.7564 64.8428 26.4611 67 33.4987 67C42.4473 67 50.8596 63.5149 57.1859 57.1885C63.5136 50.8609 66.9974 42.4486 66.9974 33.5C66.9974 28.2529 65.7977 23.1897 63.5304 18.6228H63.5317ZM29.2207 17.4166C29.2544 17.4412 29.2893 17.4619 29.3243 17.4852C28.4615 17.6329 27.162 17.699 26.6373 16.9087C26.5414 16.7649 26.4391 16.5667 26.4935 16.4358C26.6204 16.1249 27.5325 15.9357 28.4135 15.753C28.5094 15.7336 28.6105 15.7116 28.7102 15.6909C28.5936 15.836 28.5185 15.985 28.49 16.1417C28.4096 16.5719 28.6493 16.989 29.2233 17.4166H29.2207ZM34.6285 13.4521C35.8942 12.8289 37.5241 12.1099 39.0244 11.6992C37.8622 12.3755 36.3062 12.9377 34.6285 13.4521ZM43.7105 54.0532C43.6768 54.0286 43.6419 54.0079 43.6069 53.9845C44.4697 53.8368 45.7692 53.7708 46.2939 54.5611C46.3898 54.7049 46.4921 54.9031 46.4377 55.034C46.3108 55.3449 45.3987 55.534 44.5177 55.7167C44.4218 55.7362 44.3207 55.7582 44.221 55.7789C44.3376 55.6338 44.4127 55.4848 44.4412 55.3281C44.5216 54.8979 44.2819 54.4807 43.7079 54.0532H43.7105ZM38.3027 58.0164C37.037 58.6396 35.4058 59.3599 33.9055 59.7693C35.069 59.093 36.625 58.5307 38.3027 58.0164ZM33.5 66.4818C26.5932 66.4818 20.1762 64.3466 14.872 60.7021C17.7418 60.2526 21.863 60.6724 25.0009 61.2839C27.3213 61.736 28.407 61.4471 29.6651 61.1129C30.3867 60.9211 31.2042 60.7034 32.3832 60.5907C35.5794 60.2863 40.2889 57.572 40.7333 57.3129C40.9198 57.2611 41.1064 57.2092 41.2917 57.1574C41.8734 56.9955 42.367 56.8335 42.7803 56.6703C43.4035 56.4772 44.0513 56.3425 44.6239 56.2246C45.821 55.9758 46.6852 55.7971 46.9184 55.2309C47.0324 54.9523 46.9702 54.6401 46.7267 54.2747C45.7601 52.8224 43.1029 53.5401 42.6792 53.6658C41.8863 53.5609 40.9302 53.7371 39.9352 53.921C38.8663 54.1193 37.7599 54.3253 36.7403 54.2229C36.3049 54.1789 35.7517 54.1685 35.135 54.1802C35.1506 54.0066 35.1415 53.8148 35.1039 53.5971C34.8928 52.3262 33.1295 52.1733 30.6912 51.9634C28.9719 51.8144 27.0221 51.646 25.1292 51.0578C24.6511 50.9088 24.2016 50.7611 23.7675 50.6173C20.1269 49.415 17.721 48.6208 11.0954 52.0088C10.0512 52.5425 8.82165 53.1333 7.4859 53.7526C3.12107 48.157 0.518235 41.1271 0.518235 33.5C0.518235 15.3138 15.3138 0.518235 33.5 0.518235C42.9228 0.518235 51.4335 4.49051 57.4489 10.848C54.6258 11.1589 50.8505 10.7547 47.929 10.1859C45.6086 9.73375 44.5229 10.0227 43.2648 10.3569C42.5432 10.5487 41.7257 10.7663 40.5467 10.879C37.3518 11.1835 32.6423 13.8965 32.1979 14.1569C32.0114 14.2087 31.8248 14.2605 31.6395 14.3124C31.0578 14.4743 30.5642 14.6362 30.1509 14.7995C29.5277 14.9925 28.8799 15.1273 28.3073 15.2452C27.1102 15.4939 26.246 15.6727 26.0128 16.2376C25.8988 16.5161 25.961 16.8284 26.2045 17.195C26.6723 17.8972 27.5338 18.0916 28.3475 18.0916C29.2194 18.0916 30.0343 17.8674 30.2507 17.804C31.0436 17.9089 31.9997 17.7327 32.9947 17.5487C34.0636 17.3505 35.17 17.1445 36.1909 17.2469C36.6263 17.2909 37.1795 17.3013 37.7962 17.2896C37.7806 17.4632 37.791 17.655 37.8273 17.8726C38.0384 19.1436 39.8017 19.2965 42.2413 19.5064C43.9606 19.6554 45.9104 19.8238 47.8033 20.412C48.2814 20.561 48.7309 20.7087 49.1649 20.8525C50.8635 21.4135 52.2938 21.8864 54.0079 21.8864C55.9681 21.8864 58.3014 21.2697 61.8358 19.4623C62.2167 19.268 62.6222 19.0659 63.0472 18.8573C65.2432 23.2713 66.4818 28.2425 66.4818 33.4987C66.4818 51.6849 51.6862 66.4805 33.5 66.4805V66.4818Z" fill="#282828"/>
<path d="M14.4872 38.1227V17.3506H11.2612L11.3739 41.236L14.4872 38.1227ZM13.969 17.8688V37.9077L11.8857 39.991L11.7821 17.8688H13.969Z" fill="#282828"/>
<path d="M26.9586 41.6117L20.6141 35.2672L11.2612 44.62V48.9253L20.478 39.7085L30.0745 49.3049V25.7952H26.9586V41.613V41.6117ZM27.4768 26.3121H29.5562V48.0521L20.478 38.9739L11.7795 47.6724V44.8325L20.6141 35.9992L27.4768 42.8619V26.3121Z" fill="#282828"/>
<path d="M39.7525 43.4839H43.647L53.6425 25.7939H32.5607V29.0757L48.3966 28.915L39.7525 43.4839ZM33.0789 28.5523V26.3122H52.7537L43.3438 42.9657H40.662L49.3113 28.3877L33.0776 28.5523H33.0789Z" fill="#282828"/>
<path d="M38.6526 45.6592L36.7079 48.937H57.2067L59.0788 45.562L38.799 45.6592H38.6526ZM58.1965 46.0841L56.9022 48.4188H37.6187L38.9493 46.1761L58.1965 46.0841Z" fill="#282828"/>
</g>
<defs>
<clipPath id="clip0_334_48">
<rect width="67" height="67" fill="white"/>
</clipPath>
</defs>
</svg>
