<svg width="211" height="211" viewBox="0 0 211 211" fill="none" xmlns="http://www.w3.org/2000/svg">
<g clip-path="url(#clip0_106_491)">
<path d="M209.368 105.5C209.368 162.773 162.773 209.368 105.5 209.368C83.7487 209.368 63.5398 202.644 46.8358 191.167C46.0279 191.293 45.2567 191.444 44.5142 191.615C62.2179 204.207 83.3325 211 105.496 211C133.677 211 160.17 200.025 180.093 180.101C200.02 160.174 210.992 133.682 210.992 105.5C210.992 88.9756 207.214 73.0304 200.073 58.6479C199.555 58.8968 199.045 59.1457 198.547 59.3905C205.463 73.2915 209.364 88.947 209.364 105.5H209.368Z" fill="white"/>
<path d="M0 105.5C0 129.148 7.73185 151.61 21.996 169.999C22.5264 169.754 23.0528 169.513 23.5709 169.272C9.82904 151.659 1.63205 129.52 1.63205 105.5" fill="white"/>
<path d="M1.63205 105.5C1.63205 48.2272 48.2272 1.63205 105.5 1.63205C135.175 1.63205 161.977 14.1417 180.921 34.163C181.623 34.0854 182.304 33.9957 182.961 33.8896C182.027 32.8777 181.076 31.8822 180.097 30.9029C160.174 10.9756 133.677 0 105.5 0C77.3226 0 50.8262 10.9756 30.8988 30.8988C10.9756 50.8262 0 77.3185 0 105.5" fill="white"/>
<path d="M74.3361 160.949C75.7111 161.402 77.1309 161.871 78.6528 162.344C84.7812 164.25 91.2849 164.809 96.5116 165.262C103.199 165.841 108.483 166.298 108.94 169.052C109.046 169.685 109.062 170.219 108.993 170.664C109.556 170.643 110.107 170.627 110.645 170.619C110.694 170.072 110.666 169.468 110.547 168.783C109.882 164.78 104.329 164.299 96.6503 163.638C91.236 163.169 85.0954 162.638 79.1343 160.786C77.6287 160.317 76.2129 159.851 74.8461 159.399C63.3809 155.612 55.8041 153.111 34.9383 163.781C31.6497 165.462 27.7777 167.322 23.571 169.272C23.9138 169.713 24.2647 170.15 24.6156 170.586C28.7039 168.689 32.4657 166.877 35.6768 165.233C55.9347 154.874 62.8586 157.163 74.3279 160.949H74.3361Z" fill="white"/>
<path d="M24.6194 170.586C24.2686 170.15 23.9177 169.713 23.5749 169.272C23.0568 169.513 22.5304 169.754 22 169.999C22.3427 170.439 22.6936 170.88 23.0445 171.317C23.5749 171.072 24.1013 170.827 24.6235 170.586H24.6194Z" fill="white"/>
<path d="M108.87 171.174C108.927 171.023 108.964 170.852 108.993 170.664C105.504 170.786 101.554 171.092 97.9802 171.427C102.073 171.133 105.618 171.541 109.066 171.937C109.988 172.043 110.89 172.149 111.783 172.235C113.215 172.231 114.497 172.271 115.537 172.377C118.985 172.724 122.579 172.055 126.06 171.41C130.364 170.611 134.428 169.86 136.676 171.533C137.529 172.169 138.512 173.104 138.357 173.94C138.174 174.928 136.505 176.511 129.601 178.428C120.886 180.852 111.873 183.357 105.904 186.846L106.72 188.241C106.72 188.241 106.757 188.233 106.777 188.225C110.441 186.095 115.341 184.324 120.625 182.704C124.636 180.73 127.476 179.069 127.545 179.028L128.373 180.436C128.373 180.436 128.324 180.464 128.283 180.489C128.871 180.326 129.458 180.162 130.042 179.999C131.874 179.489 133.428 178.979 134.73 178.465L134.244 176.906C135.946 176.376 137.672 175.992 139.271 175.658C139.638 175.201 139.875 174.732 139.965 174.238C140.218 172.883 139.463 171.57 137.655 170.223C137.549 170.146 137.439 170.08 137.329 170.007C135.84 170.264 134.763 170.594 134.73 170.603L134.236 169.048C134.261 169.04 134.318 169.024 134.404 168.995C131.907 168.665 128.895 169.219 125.762 169.799C122.396 170.423 118.911 171.072 115.7 170.75C114.329 170.611 112.587 170.578 110.645 170.615C110.608 171.027 110.527 171.406 110.396 171.749L108.87 171.166V171.174Z" fill="white"/>
<path d="M95.9648 171.627C96.0382 171.619 96.1076 171.611 96.181 171.602C91.7378 172.043 88.1676 172.488 87.2904 172.598C81.4762 170.758 78.4202 170.06 70.0763 170.06C61.7325 170.06 53.5232 163.438 53.4376 163.369L52.4338 164.658C52.801 164.944 61.5693 171.692 70.0763 171.692C78.5834 171.692 81.1009 172.345 86.9681 174.205L87.1395 174.259L87.319 174.234C87.421 174.222 92.3661 173.589 98.2864 173.039C97.5968 173.083 96.891 173.149 96.1688 173.238L95.9648 171.619V171.627Z" fill="white"/>
<path d="M108.87 171.174L110.396 171.757C110.527 171.415 110.608 171.035 110.645 170.623C110.11 170.631 109.556 170.648 108.993 170.668C108.964 170.852 108.927 171.027 108.87 171.178V171.174Z" fill="white"/>
<path d="M145.795 171.827C146.097 172.28 146.42 172.904 146.248 173.316C145.848 174.295 142.976 174.891 140.201 175.466C139.9 175.527 139.581 175.597 139.267 175.662C138.463 176.658 136.978 177.576 134.726 178.469C136.689 177.861 138.729 177.437 140.532 177.066C144.302 176.282 147.023 175.719 147.758 173.936C148.117 173.059 147.921 172.076 147.154 170.925C144.11 166.351 135.742 168.612 134.408 169.007C135.493 169.15 136.476 169.464 137.329 170.015C140.046 169.55 144.139 169.342 145.791 171.831L145.795 171.827Z" fill="white"/>
<path d="M134.734 170.611C134.763 170.603 135.84 170.268 137.333 170.015C136.476 169.464 135.493 169.15 134.412 169.007C134.326 169.032 134.269 169.052 134.245 169.06L134.738 170.615L134.734 170.611Z" fill="white"/>
<path d="M139.271 175.658C137.676 175.993 135.95 176.38 134.245 176.906L134.73 178.465C136.982 177.572 138.468 176.654 139.271 175.658Z" fill="white"/>
<path d="M108.882 173.561C111.351 173.846 113.681 174.116 116.112 174.116C118.312 174.116 119.568 174.981 120.013 175.792C120.29 176.302 120.286 176.825 120.005 177.269C119.462 178.114 118.03 178.538 116.174 178.404C109.613 177.939 102.746 180.056 91.3705 183.573L88.9428 184.324C76.6167 188.119 67.9424 185.813 67.8526 185.789L67.6363 186.576L67.416 187.364C67.62 187.421 70.3782 188.163 74.9479 188.163C78.6935 188.163 83.6509 187.666 89.4202 185.891L91.8479 185.14C103.044 181.68 109.792 179.591 116.055 180.04C118.552 180.219 120.494 179.534 121.376 178.159C121.98 177.221 122.004 176.045 121.445 175.017C120.58 173.434 118.589 172.492 116.112 172.492C114.664 172.492 113.24 172.39 111.787 172.247C107.866 172.263 102.795 172.634 98.2904 173.055C102.162 172.798 105.573 173.189 108.882 173.573V173.561Z" fill="white"/>
<path d="M96.1809 171.602C96.7684 171.545 97.3682 171.484 97.9802 171.427C97.3927 171.468 96.7929 171.525 96.1809 171.602Z" fill="white"/>
<path d="M97.9843 171.431C97.3723 171.488 96.7685 171.545 96.185 171.606C96.1116 171.614 96.0422 171.623 95.9688 171.631L96.1728 173.251C96.8949 173.161 97.6008 173.095 98.2903 173.051C102.795 172.63 107.866 172.259 111.787 172.243C110.894 172.153 109.992 172.051 109.07 171.945C105.622 171.545 102.077 171.137 97.9843 171.435V171.431Z" fill="white"/>
<path d="M78.7384 192.999C86.046 194.422 89.4651 193.513 93.4269 192.46C95.6995 191.856 98.2741 191.171 101.987 190.816C112.053 189.857 126.884 181.309 128.283 180.493C125.705 181.211 123.126 181.945 120.629 182.708C116.643 184.671 111.506 186.94 106.781 188.229C106.765 188.237 106.749 188.245 106.732 188.257L106.724 188.245C105.014 188.71 103.358 189.045 101.836 189.192C97.9885 189.559 95.3446 190.261 93.0107 190.881C89.0897 191.925 85.9929 192.746 79.0526 191.395C75.0582 190.616 56.8771 187.356 44.9468 189.832C45.571 190.281 46.2035 190.726 46.84 191.162C55.8775 189.747 68.8564 191.069 78.7384 192.994V192.999Z" fill="white"/>
<path d="M44.9427 189.836C44.2001 189.991 43.482 190.167 42.7925 190.367C43.3637 190.791 43.939 191.203 44.5184 191.615C45.2569 191.444 46.0321 191.293 46.84 191.167C46.2035 190.73 45.5711 190.285 44.9468 189.836H44.9427Z" fill="white"/>
<path d="M106.728 188.257C106.728 188.257 106.761 188.241 106.777 188.229C106.757 188.233 106.74 188.237 106.72 188.245L106.728 188.257Z" fill="white"/>
<path d="M127.545 179.032C127.48 179.073 124.636 180.734 120.625 182.708C123.122 181.941 125.705 181.211 128.279 180.493C128.32 180.468 128.353 180.452 128.369 180.44L127.541 179.032H127.545Z" fill="white"/>
<path d="M155.343 64.1235C153.968 63.6706 152.548 63.2014 151.026 62.7281C144.898 60.8227 138.394 60.2637 133.167 59.8108C126.48 59.2314 121.196 58.7744 120.739 56.0203C120.633 55.3879 120.617 54.8534 120.686 54.4087C120.123 54.4291 119.572 54.4454 119.034 54.4536C118.985 55.0003 119.017 55.6042 119.132 56.2896C119.797 60.2922 125.35 60.7737 133.033 61.4347C138.447 61.9039 144.588 62.4343 150.549 64.2867C152.054 64.7559 153.47 65.221 154.837 65.6739C160.186 67.4406 164.69 68.9299 170.088 68.9299C176.262 68.9299 183.61 66.9877 194.741 61.296C195.94 60.6839 197.217 60.0474 198.556 59.3905C198.315 58.905 198.07 58.4154 197.821 57.9339C196.479 58.5908 195.198 59.2273 193.998 59.8434C173.74 70.2029 166.816 67.9139 155.347 64.1276L155.343 64.1235Z" fill="white"/>
<path d="M197.817 57.9337C198.066 58.4152 198.311 58.9048 198.552 59.3904C199.053 59.1455 199.559 58.8967 200.078 58.6478C199.837 58.1622 199.588 57.6767 199.339 57.1912C198.821 57.4401 198.315 57.6889 197.817 57.9297V57.9337Z" fill="white"/>
<path d="M133.71 53.4457C133.588 53.462 133.469 53.4701 133.347 53.4864C137.855 53.0417 141.499 52.5847 142.384 52.4746C148.199 54.3147 151.255 55.0124 159.598 55.0124C167.942 55.0124 176.152 61.6345 176.237 61.7038L177.241 60.4145C176.874 60.1289 168.106 53.3804 159.598 53.3804C151.091 53.3804 148.574 52.7275 142.707 50.867L142.535 50.814L142.356 50.8384C142.254 50.8507 137.284 51.4872 131.348 52.038C132.054 51.9931 132.772 51.9278 133.506 51.834L133.71 53.4538V53.4457Z" fill="white"/>
<path d="M109.054 42.3641C105.043 44.3389 102.199 46.0036 102.13 46.0403L101.302 44.6327C101.302 44.6327 101.355 44.6041 101.391 44.5796C100.804 44.7429 100.216 44.9061 99.6328 45.0693C97.8008 45.5793 96.2463 46.0893 94.9447 46.6034L95.4302 48.162C93.7288 48.6924 92.0029 49.0759 90.4035 49.4105C90.0363 49.8675 89.7997 50.3367 89.7099 50.8304C89.4569 52.185 90.2117 53.4988 92.0192 54.8453C92.1253 54.9228 92.2355 54.9881 92.3457 55.0615C93.8349 54.8045 94.9121 54.474 94.9406 54.4617L95.4343 56.0163C95.4098 56.0244 95.3486 56.0407 95.267 56.0652C97.7641 56.3957 100.775 55.8408 103.909 55.2614C107.275 54.6372 110.759 53.9884 113.974 54.3108C115.345 54.4495 117.088 54.4821 119.03 54.4454C119.066 54.0333 119.148 53.6539 119.279 53.307L120.805 53.8905C120.747 54.0415 120.711 54.2128 120.682 54.4005C124.24 54.274 128.271 53.9599 131.898 53.6171C130.854 53.6987 129.838 53.7395 128.855 53.7395C125.917 53.7395 123.232 53.4295 120.609 53.1275C119.683 53.0214 118.781 52.9154 117.883 52.8297C116.455 52.8338 115.178 52.793 114.138 52.6909C110.694 52.3482 107.095 53.0133 103.615 53.6579C99.3104 54.4576 95.2466 55.2084 92.9985 53.5355C92.1457 52.899 91.1624 51.9647 91.3175 51.1283C91.5011 50.1409 93.1698 48.5578 100.073 46.6401C108.789 44.2165 117.802 41.7072 123.771 38.2228L122.955 36.8274C122.955 36.8274 122.918 36.8356 122.898 36.8437C119.238 38.9735 114.338 40.7443 109.054 42.3641Z" fill="white"/>
<path d="M119.279 53.3191C119.148 53.6618 119.067 54.0413 119.03 54.4575C119.564 54.4493 120.115 54.433 120.682 54.4126C120.711 54.229 120.748 54.0535 120.805 53.9026L119.279 53.3191Z" fill="white"/>
<path d="M83.8836 53.2499C83.5816 52.797 83.2593 52.1727 83.4307 51.7606C83.8305 50.7814 86.7029 50.1857 89.4774 49.6104C89.7794 49.5492 90.0976 49.4798 90.4118 49.4146C91.2156 48.419 92.7007 47.501 94.953 46.6074C92.9904 47.2154 90.9503 47.6397 89.1469 48.011C85.3769 48.7944 82.6554 49.3574 81.921 51.1364C81.562 52.0136 81.7578 52.9969 82.5249 54.1516C83.9978 56.363 86.7111 56.975 89.2734 56.975C92.0193 56.975 94.5857 56.2692 95.2671 56.0692C94.1818 55.9264 93.1985 55.6123 92.3458 55.0615C89.6284 55.5266 85.536 55.7347 83.8836 53.2458V53.2499Z" fill="white"/>
<path d="M94.9446 54.4658C94.916 54.474 93.8389 54.8086 92.3496 55.0656C93.2064 55.6164 94.1898 55.9306 95.271 56.0734C95.3526 56.0489 95.4138 56.0285 95.4383 56.0244L94.9446 54.4699V54.4658Z" fill="white"/>
<path d="M90.4077 49.4146C92.003 49.08 93.7289 48.6924 95.4344 48.166L94.9489 46.6074C92.6967 47.501 91.2115 48.419 90.4077 49.4146Z" fill="white"/>
<path d="M133.347 53.4866C132.874 53.5315 132.388 53.5804 131.898 53.6253C132.376 53.5886 132.857 53.5437 133.347 53.4866Z" fill="white"/>
<path d="M120.796 51.5118C118.328 51.2261 115.998 50.9569 113.566 50.9569C111.367 50.9569 110.111 50.0919 109.666 49.2799C109.388 48.7699 109.392 48.2476 109.674 47.8029C110.217 46.9583 111.645 46.534 113.505 46.6686C120.066 47.1338 126.937 45.0121 138.317 41.4991L140.74 40.7524C153.062 36.9579 161.741 39.2632 161.83 39.2877L162.267 37.7168C161.896 37.6148 153.074 35.2483 140.263 39.1938L137.839 39.9405C126.643 43.4004 119.887 45.4895 113.628 45.0447C111.131 44.8652 109.188 45.5507 108.307 46.9257C107.703 47.8641 107.679 49.0392 108.238 50.0674C109.103 51.6505 111.094 52.593 113.571 52.593C115.015 52.593 116.439 52.695 117.887 52.8378C121.8 52.8215 126.851 52.4543 131.352 52.034C127.496 52.287 124.101 51.8953 120.801 51.5158L120.796 51.5118Z" fill="white"/>
<path d="M128.855 53.7477C129.838 53.7477 130.85 53.7069 131.899 53.6253C132.388 53.5804 132.874 53.5314 133.347 53.4865C133.469 53.4743 133.588 53.4621 133.71 53.4457L133.506 51.8259C132.768 51.9198 132.05 51.9851 131.348 52.0299C126.847 52.4461 121.796 52.8174 117.883 52.8337C118.781 52.9235 119.683 53.0255 120.609 53.1316C123.232 53.4335 125.917 53.7436 128.855 53.7436V53.7477Z" fill="white"/>
<path d="M150.94 32.0781C143.633 30.6541 140.214 31.564 136.252 32.6166C133.979 33.2205 131.405 33.906 127.692 34.2609C117.63 35.2198 102.799 43.7636 101.399 44.5837C103.978 43.8656 106.561 43.1311 109.058 42.3641C113.044 40.4015 118.177 38.1371 122.902 36.8436C122.918 36.8355 122.934 36.8232 122.951 36.8151L122.959 36.8273C124.668 36.3622 126.325 36.0235 127.847 35.8807C131.694 35.5135 134.338 34.8117 136.672 34.1916C140.593 33.147 143.694 32.3269 150.63 33.6775C154.364 34.4037 170.48 37.3006 182.317 35.6563C181.86 35.1545 181.394 34.6567 180.925 34.163C172.035 35.1422 160.145 33.8692 150.944 32.0781H150.94Z" fill="white"/>
<path d="M182.313 35.6563C182.982 35.5624 183.639 35.4563 184.279 35.3299C183.847 34.8443 183.41 34.367 182.965 33.8855C182.304 33.9916 181.623 34.0813 180.925 34.1589C181.395 34.6526 181.86 35.1503 182.317 35.6522L182.313 35.6563Z" fill="white"/>
<path d="M122.898 36.8475C122.898 36.8475 122.934 36.8394 122.955 36.8313L122.946 36.8191C122.946 36.8191 122.914 36.8394 122.898 36.8475Z" fill="white"/>
<path d="M102.134 46.0402C102.199 45.9994 105.047 44.3388 109.058 42.364C106.561 43.1311 103.978 43.8614 101.4 44.5836C101.359 44.6081 101.326 44.6244 101.31 44.6366L102.138 46.0443L102.134 46.0402Z" fill="white"/>
<path d="M45.6241 120.058V54.6411H35.4646L35.8196 129.862L45.6241 120.058ZM43.9921 56.2732V119.381L37.4312 125.941L37.1048 56.2732H43.9921Z" fill="white"/>
<path d="M84.8995 131.046L64.9191 111.065L35.4646 140.52V154.078L64.4907 125.052L94.7122 155.273V81.2354H84.8995V131.05V131.046ZM86.5316 82.8633H93.0802V151.328L64.4907 122.738L37.0967 150.132V141.189L64.9191 113.37L86.5316 134.983V82.8633Z" fill="white"/>
<path d="M125.191 136.942H137.456L168.934 81.2314H102.542V91.5664L152.413 91.0605L125.191 136.942ZM104.174 89.9181V82.8635H166.135L136.501 135.31H128.055L155.294 89.3999L104.17 89.9181H104.174Z" fill="white"/>
<path d="M121.727 143.792L115.602 154.115H180.158L186.054 143.486L122.188 143.792H121.727ZM183.275 145.13L179.199 152.483H118.471L122.661 145.42L183.275 145.13Z" fill="white"/>
</g>
<defs>
<clipPath id="clip0_106_491">
<rect width="211" height="211" fill="white"/>
</clipPath>
</defs>
</svg>
