<svg width="142" height="124" viewBox="0 0 142 124" fill="none" xmlns="http://www.w3.org/2000/svg">
<g clip-path="url(#clip0_212_335)">
<path d="M63.5499 96.76C63.0299 96.76 62.6399 96.73 62.4399 96.67C60.8999 96.23 18.3099 80.83 17.9299 80.72C17.6699 80.64 17.5199 80.36 17.5999 80.1C17.6799 79.84 17.9599 79.68 18.2199 79.77C18.5999 79.89 61.1899 95.28 62.7199 95.72C64.0499 96.1 79.2099 92.47 80.9399 91.74C83.2699 90.75 91.1799 85.46 93.5499 83.86C93.7399 83.73 93.8699 83.53 93.9099 83.31C93.9499 83.09 93.9099 82.87 93.7699 82.68C92.8299 81.36 91.9799 80.62 91.4299 80.7C90.5699 80.82 88.5799 81.54 86.6499 82.23C85.1999 82.75 83.6999 83.29 82.4999 83.65C79.7199 84.48 76.4099 85.29 74.8299 84.32C74.3699 84.04 74.0699 83.6 73.9699 83.07C73.6799 81.46 75.4399 78.63 79.3699 74.4C79.4999 74.26 79.5899 74.16 79.6199 74.12C80.0499 73.45 80.0999 72.76 79.7399 72.21C79.3399 71.58 78.4999 71.25 77.6399 71.36C76.6599 71.56 72.6399 77.33 70.4799 80.43C69.0899 82.43 67.9899 84.01 67.4799 84.54C65.8399 86.28 63.9199 86.31 61.0799 84.63C59.0099 83.41 18.8099 64.25 18.4699 64.07C18.2199 63.94 18.1299 63.64 18.2599 63.4C18.3899 63.15 18.6899 63.06 18.9299 63.19C20.3499 63.92 59.4999 82.54 61.5999 83.77C64.3999 85.43 65.6499 85.03 66.7599 83.86C67.2099 83.38 68.3499 81.75 69.6599 79.86C74.0399 73.56 76.3399 70.53 77.4999 70.37C78.7499 70.19 79.9699 70.7 80.5799 71.67C81.1499 72.56 81.0899 73.66 80.4299 74.69C80.4099 74.72 80.2899 74.86 80.0899 75.07C75.3099 80.22 74.8199 82.17 74.9499 82.88C74.9999 83.13 75.1199 83.32 75.3499 83.45C76.7399 84.3 80.7999 83.09 82.1299 82.7C83.3799 82.33 84.8599 81.79 86.2999 81.28C88.3699 80.54 90.3199 79.84 91.2799 79.7C92.2399 79.57 93.3499 80.37 94.5799 82.09C94.8699 82.49 94.9799 82.99 94.8899 83.47C94.7999 83.96 94.5199 84.39 94.1099 84.67C91.0499 86.74 83.6799 91.65 81.3299 92.65C79.8399 93.28 67.4299 96.76 63.5499 96.76Z" fill="#1E2C30" stroke="#1E2C30" stroke-miterlimit="10"/>
<path d="M99.1 96.77C95.31 96.77 92.1 96.69 91.02 96.46C87.79 95.77 84.02 91.59 83.86 91.42C83.68 91.21 83.69 90.9 83.9 90.71C84.1 90.52 84.42 90.54 84.61 90.75C84.65 90.79 88.32 94.86 91.23 95.48C94.25 96.13 127 93.46 127.22 93.47C127.22 93.47 127.74 93.38 127.74 93.95C127.74 94.23 127.53 94.46 127.26 94.47C126.67 94.49 106.34 96.77 99.11 96.77H99.1Z" fill="#1E2C30" stroke="#1E2C30" stroke-miterlimit="10"/>
<path d="M42.7798 56.13C42.6898 56.13 42.5998 56.11 42.5198 56.07L21.9298 45.39C21.6498 45.25 21.5398 44.9 21.6798 44.63C21.8198 44.35 22.1698 44.24 22.4398 44.38L43.0298 55.06C43.3098 55.2 43.4198 55.55 43.2798 55.82C43.1798 56.02 42.9798 56.13 42.7698 56.13H42.7798Z" fill="#1E2C30" stroke="#1E2C30" stroke-miterlimit="10"/>
<path d="M41.41 67.13C41.33 67.13 41.25 67.11 41.18 67.07L23.06 57.67C22.81 57.54 22.72 57.24 22.84 57C22.97 56.75 23.27 56.66 23.51 56.78L41.63 66.18C41.88 66.31 41.97 66.61 41.85 66.85C41.76 67.02 41.59 67.12 41.41 67.12V67.13Z" fill="#1E2C30" stroke="#1E2C30" stroke-miterlimit="10"/>
<path d="M58.1999 58.26L58.1099 57.26C58.1699 57.26 63.6699 56.7801 65.3699 56.4901C69.2899 55.8201 74.2899 54.2601 74.3599 54.2401L74.6199 55.2001C74.3199 55.2801 70.4399 56.6601 65.5299 57.4701C63.7899 57.7601 58.4199 58.23 58.1999 58.25V58.26Z" fill="#1E2C30" stroke="#1E2C30" stroke-miterlimit="10"/>
<path d="M96.7999 76C94.5099 76 91.6999 75.09 90.0799 73.76L87.8799 71.94C87.8799 71.94 87.8599 71.92 87.8499 71.92L84.8099 69.41C83.3399 68.2 82.6199 66.33 82.8299 64.44C83.0499 62.44 82.9899 60.26 82.6499 57.95C82.6099 57.65 82.4799 57.56 82.1099 57.32C81.5299 56.94 80.7199 56.43 80.4999 54.55C80.3599 53.39 80.0899 51.15 79.7199 50.38C79.2999 54.35 76.8099 56.88 76.0199 57.58C75.6499 57.91 75.1299 58 74.6699 57.79C74.1999 57.58 73.9199 57.14 73.9199 56.63V44.02C73.9199 43.36 74.2599 42.73 74.8199 42.39C76.6799 41.23 79.0999 41.17 80.6699 41.64C81.7499 41.96 82.5399 42.54 82.8799 43.26C83.1499 43.85 83.4199 44.71 83.6999 45.62C84.1799 47.17 84.7699 49.09 85.5099 49.85C86.2699 50.62 87.0899 51.2 87.9499 51.57C89.7299 52.34 91.0199 53.92 91.4299 55.81L92.5099 60.83C93.2199 64.12 92.3399 67.55 90.1299 70.09C89.4599 70.86 89.5599 72.02 90.3399 72.67L90.7399 73C92.4099 74.38 95.6199 75.27 97.7599 74.95L127.19 71.04C127.46 71 127.72 71.19 127.76 71.46C127.8 71.73 127.61 71.99 127.34 72.03L97.9099 75.94C97.5699 75.99 97.2099 76.02 96.8299 76.02L96.7999 76ZM80.3499 49.02C80.4699 49.26 81.1199 51.51 81.4699 54.43C81.6399 55.85 82.1399 56.17 82.6299 56.48C83.0199 56.73 83.4999 57.04 83.6199 57.8C83.9799 60.21 84.0399 62.49 83.7999 64.59C83.6299 66.14 84.2699 67.67 85.4799 68.67L86.7599 69.72C87.5099 70.34 88.6299 70.25 89.2699 69.51L89.3499 69.42C91.3499 67.12 92.1499 64.01 91.5099 61.03L90.3699 55.77C90.0599 54.36 89.1299 53.11 87.7799 52.59C86.6999 52.17 85.6899 51.49 84.7699 50.54C83.8599 49.61 83.2599 47.64 82.7199 45.91C82.4499 45.03 82.1999 44.21 81.9499 43.68C81.7399 43.22 81.1599 42.83 80.3599 42.59C79.4499 42.32 78.2199 42.25 77.0199 42.54C75.8199 42.83 74.8999 43.98 74.8999 45.26V56.63C74.8999 56.79 75.0099 56.86 75.0599 56.88C75.1199 56.91 75.2299 56.94 75.3299 56.84C76.0799 56.17 78.5499 53.66 78.7399 49.71C78.7399 49.71 78.8099 49.09 78.9099 48.92C79.7699 47.49 80.2699 48.88 80.3399 49.02H80.3499Z" fill="#1E2C30" stroke="#1E2C30" stroke-miterlimit="10"/>
<path d="M42.2498 74.76C42.2498 66.09 41.3298 50.42 50.9998 50.42C55.8298 50.42 59.7498 57.45 59.7498 66.11" stroke="#1E2C30" stroke-width="2" stroke-miterlimit="10" stroke-linecap="round"/>
<path d="M20.7118 120.017L20.7196 120.026L20.7278 120.035L23.8699 123.336L19.6089 123.321L18.4482 121.983C6.87823 108.605 0.5 91.3222 0.5 73.31C0.5 33.1476 31.9243 0.5 70.52 0.5C109.106 0.5 140.53 33.1476 140.55 73.3102C140.55 91.3323 134.172 108.616 122.602 121.993L121.441 123.331L117.17 123.354L120.313 120.044L120.321 120.036L120.328 120.027C131.428 107.194 137.54 90.5975 137.54 73.31C137.54 34.8334 107.495 3.5 70.52 3.5C33.5447 3.5 3.5 34.8334 3.5 73.3C3.5 90.5875 9.61158 107.184 20.7118 120.017Z" fill="#1E2C30" stroke="#1E2C30"/>
<path d="M96.6313 102.822L97.0399 102.746V102.723C97.0884 102.712 97.1362 102.701 97.1835 102.69L97.3204 102.737C94.9415 103.349 91.9261 103.135 88.7338 102.028L88.7337 102.028C85.1724 100.793 83.1547 99.0187 81.9071 97.3951L82.0456 97.4434C82.1531 97.5819 82.2633 97.7232 82.3858 97.8701L82.3857 97.8701L82.3919 97.8774C83.6803 99.3647 85.6346 100.884 88.7562 101.962C92.2038 103.159 94.8217 103.158 96.6313 102.822Z" fill="#1E2C30" stroke="#1E2C30"/>
</g>
<defs>
<clipPath id="clip0_212_335">
<rect width="141.03" height="123.86" fill="white"/>
</clipPath>
</defs>
</svg>
