<svg width="142" height="125" viewBox="0 0 142 125" fill="none" xmlns="http://www.w3.org/2000/svg">
<g clip-path="url(#clip0_237_278)">
<path d="M121.66 124.274L115.99 124.304L119.94 120.144C130.96 107.404 137.03 90.9243 137.03 73.7543C137.03 35.5343 107.19 4.44434 70.51 4.44434C33.83 4.44434 4 35.5343 4 73.7543C4 90.9243 10.07 107.394 21.09 120.144L25.04 124.294L19.38 124.274L18.07 122.764C6.42 109.294 0 91.8843 0 73.7543C0 33.3343 31.63 0.444336 70.52 0.444336C109.41 0.444336 141.04 33.3343 141.04 73.7543C141.04 91.8843 134.62 109.294 122.97 122.764L121.66 124.274Z" fill="#1E2C30"/>
<path d="M113.14 64.1344C114.15 69.4844 114.14 74.9044 114.63 80.2644L114.61 80.2844C114.67 81.4044 115.33 91.0044 113.41 93.0344C108.79 95.5644 107.33 91.7244 106.54 87.7144C105.61 84.1344 105.03 80.0244 104.42 76.1944C104.19 74.9144 103.98 72.8344 103.66 71.3944L103.66 71.3946C103.64 71.4845 103.62 71.5745 103.6 71.6844C102.55 83.1244 103.58 94.5144 103.49 105.924V106.444C103.48 107.024 103.49 107.594 103.48 108.164C103.49 108.234 103.47 108.304 103.47 108.374V108.484C103.51 110.584 102.05 112.684 99.36 112.734C97.8 112.764 96.7 111.814 96.41 109.924C95.51 104.134 94.92 100.284 94.32 94.2244C94.27 93.5344 94.21 92.8144 94.14 92.1044C93.99 98.3644 94.39 104.164 94.29 110.444V110.654V110.784C94.26 112.734 94.04 113.894 93.59 115.924C92.89 119.064 89.64 120.204 87.76 117.494C85.51 112.854 86.12 110.074 85.76 105.584C85.55 99.8644 84.88 94.7344 84.8 88.9644C84.73 88.3444 84.77 87.7244 84.72 87.1144C83.7 92.3844 84.32 98.9944 84.07 104.594V104.644C83.61 108.074 85.08 113.004 80.66 114.454C75.87 114.034 76.22 108.544 75.84 105.034V105.004C75.83 104.914 75.83 104.805 75.83 104.715V104.714V104.674V104.644C75.7 102.344 75.68 98.8944 75.62 96.1444C74.19 97.7644 72.8 99.3044 71.57 100.704C70.12 102.324 66.22 105.634 63.23 108.204C62.23 109.054 61.34 109.834 60.66 110.434C60.43 110.664 60.16 110.964 59.87 111.304C59.43 111.824 58.94 112.444 58.43 113.094C58.09 113.534 57.75 113.984 57.41 114.434C55.9 116.454 54.55 118.384 54.55 118.384H53.23C53.23 118.384 53.91 117.434 54.87 116.154C55.34 115.514 55.89 114.784 56.45 114.054C57.01 113.324 57.59 112.584 58.13 111.914C58.85 111.024 59.51 110.244 59.98 109.774C60.21 109.544 60.94 108.914 61.96 108.044C63.72 106.534 65.91 104.674 67.74 103.044C69.05 101.874 70.2 100.794 70.86 100.074C72.45 98.3344 74.5 96.0344 76.03 94.2544C80.76 88.7144 84.75 83.3044 85.44 79.6444C85.5 79.3244 85.53 79.0244 85.55 78.7244V78.4944C85.56 78.2444 85.55 77.9944 85.53 77.7644V77.6544C85.5 77.3844 85.45 77.1444 85.38 76.9144C85.36 76.8444 85.34 76.7944 85.32 76.7344C85.26 76.5544 85.19 76.3744 85.1 76.2144L85.04 76.0944C84.94 75.9044 84.81 75.7344 84.67 75.5844C84.64 75.5444 84.6 75.5144 84.57 75.4844C84.45 75.3644 84.32 75.2644 84.18 75.1744L84.1799 75.1744C84.1399 75.1444 84.1 75.1144 84.06 75.0944C83.89 74.9944 83.7 74.9144 83.5 74.8544L83.4999 74.8544C83.4599 74.8444 83.4199 74.8344 83.38 74.8344C83.21 74.7944 83.03 74.7644 82.84 74.7644H82.65C82.55 74.7644 82.43 74.7844 82.32 74.7944C82.24 74.8044 82.15 74.8144 82.07 74.8344C81.95 74.8644 81.83 74.8944 81.7 74.9344C81.61 74.9544 81.53 74.9744 81.45 75.0044L81.4499 75.0044C81.3099 75.0644 81.17 75.1244 81.02 75.1944C80.94 75.2344 80.87 75.2544 80.8 75.2944C80.58 75.4144 80.35 75.5444 80.12 75.6944C79.75 75.9344 79.32 76.2544 78.85 76.6244C77.76 77.4844 76.46 78.6644 75.11 79.9444C74.92 80.1344 74.72 80.3144 74.53 80.5044L73.36 81.6444C72.97 82.0244 72.58 82.4144 72.2 82.7944C71.63 83.3644 71.07 83.9344 70.54 84.4844C68.05 87.0344 66.13 89.1244 66.09 89.1744C65.99 89.2844 65.87 89.3244 65.75 89.3244C65.59 89.3244 65.44 89.2344 65.35 89.1044C65.34 89.0944 65.32 89.0844 65.32 89.0644C65.3 89.0344 65.29 89.0144 65.29 88.9844C65.28 88.9544 65.26 88.9244 65.26 88.8944C65.25 88.8544 65.26 88.8244 65.26 88.7844V88.7144C65.28 88.6444 65.32 88.5844 65.37 88.5244C65.78 88.0744 75.46 77.5444 79.58 74.8944C79.84 74.7244 80.1 74.5844 80.36 74.4544C80.44 74.4144 80.53 74.3844 80.61 74.3444C80.79 74.2644 80.96 74.1944 81.13 74.1344C81.23 74.0944 81.32 74.0744 81.42 74.0444C81.57 73.9944 81.73 73.9544 81.88 73.9244C81.98 73.9044 82.07 73.8844 82.17 73.8744L82.1964 73.8709C82.3365 73.8521 82.4688 73.8344 82.61 73.8344C82.67 73.8244 82.72 73.8144 82.78 73.8144H82.91C82.98 73.8244 83.06 73.8344 83.13 73.8344C83.2499 73.8444 83.3699 73.8644 83.4898 73.8844L83.49 73.8844C83.56 73.8944 83.63 73.9044 83.7 73.9244C83.83 73.9544 83.95 73.9944 84.07 74.0444C84.13 74.0644 84.19 74.0844 84.24 74.1044C84.42 74.1844 84.58 74.2644 84.74 74.3744C89.83 78.7144 83.09 87.5844 76.56 95.0844C76.65 97.8444 76.65 101.904 76.79 104.604C77.14 107.804 76.82 112.714 80.55 113.134C84.05 111.884 82.66 107.214 83.13 104.164C83.34 98.8944 82.85 92.3844 83.63 87.3744L83.6415 87.3182C84.0716 85.226 84.1683 84.7559 85.1 84.9244C85.87 85.9544 85.63 87.2944 85.75 88.5044V88.5444C85.82 94.3044 86.5 99.4644 86.71 105.174C87.05 109.574 86.61 112.044 88.57 116.644C89.95 118.634 92.17 117.574 92.71 115.344V115.314C93.27 113.524 93.31 112.424 93.35 110.644C93.43 104.644 93.07 99.0244 93.18 93.1444C93.21 91.1044 93.29 89.0344 93.47 86.9044C93.56 86.5944 93.87 86.4444 94 86.4744H94.05C94.49 86.5344 94.53 86.9544 94.58 87.2244C94.73 88.0744 95.11 91.1744 95.3 93.7544C95.9 99.7844 96.48 103.634 97.38 109.414C97.53 110.374 97.97 111.424 99.25 111.424C101.36 111.424 102.46 109.774 102.54 108.364C102.77 97.5844 101.82 86.8844 102.36 76.0944C102.43 74.4544 102.54 72.8144 102.7 71.1744V71.1344C102.93 69.9744 103.13 69.3444 103.73 69.3644C104.67 69.0344 105 73.0944 105.4 75.5244C106 79.3144 106.58 83.3744 107.5 86.8944C108.17 90.4444 109.37 93.6144 112.78 91.6144C113.9 90.1744 113.9 83.8144 113.62 79.8244C113.2 75.1244 113.16 70.3444 112.44 65.6344C112.1 63.4544 111.6 61.2844 110.84 59.1444C108.96 53.9944 105.49 53.4444 102.43 49.2144C100.65 48.1844 101.43 36.2644 101.35 31.3744H102.32C102.5 35.5944 101.54 46.6044 103.13 48.4844L103.18 48.5444C106.27 52.7844 109.75 53.3244 111.71 58.7144C112.34 60.5044 112.8 62.3144 113.14 64.1344Z" fill="#1E2C30" stroke="#1E2C30" stroke-miterlimit="10"/>
<path d="M68.0899 72.6044C68.0899 73.2544 68.0799 73.8444 68.0499 74.3244C68.0499 74.4844 68.0999 74.6044 68.1799 74.6844C68.2099 74.7144 68.2399 74.7244 68.2699 74.7444C68.2899 74.7544 68.2999 74.7744 68.3199 74.7744C68.3499 74.7844 68.3899 74.7944 68.4199 74.7944C68.4399 74.7944 68.4599 74.8044 68.4899 74.8144C68.5099 74.8144 68.5399 74.8144 68.5599 74.8144C68.5899 74.8144 68.6299 74.8144 68.6599 74.8044C68.6899 74.8044 68.7099 74.7844 68.7299 74.7644C68.7599 74.7544 68.7899 74.7444 68.8099 74.7244C68.8999 74.6544 68.9699 74.5344 68.9799 74.3844C69.1099 71.8544 68.8999 66.8544 68.8399 64.0744C69.6099 58.3044 77.6799 55.3744 77.6799 46.8844C77.7099 41.5944 77.7799 35.7744 78.0999 31.3844H77.1499C76.8299 35.7244 76.7699 41.3644 76.7299 46.8744C76.6999 51.4244 74.1899 54.3444 71.7699 57.1644C69.8799 59.3544 68.0999 61.4344 67.8899 64.0244V64.0644C67.9299 65.9944 68.0399 69.0844 68.0599 71.6144C67.4899 71.8444 66.9399 72.0444 66.3599 72.2444C63.8899 72.7844 53.9499 78.0444 49.4599 83.4744C48.0999 85.0144 48.5299 91.4244 47.8599 93.8144C47.6799 94.4944 47.5299 95.0544 47.3999 95.5244C46.9799 97.1111 46.4533 98.2544 45.8199 98.9544C42.0899 103.104 30.6799 118.404 30.6799 118.404H31.9999C31.9999 118.404 42.7499 103.804 46.5199 99.5944C47.8299 98.4644 48.1299 96.3544 48.7699 94.0744C49.4499 91.9044 49.0599 85.7144 50.1799 84.1044C52.1999 81.7544 52.6699 81.4744 54.4199 80.1744C62.3199 74.3644 63.7299 74.2944 68.0699 72.6444L68.0899 72.6044Z" fill="#1E2C30" stroke="#1E2C30" stroke-miterlimit="10"/>
<path d="M70.5326 48.8956L70.5316 48.8962C66.1898 51.5153 63.9304 53.477 62.8595 55.8391C61.8056 58.1638 61.9451 60.8039 62.1451 64.5863L62.1506 64.6907L62.1507 64.6923C62.2106 65.7608 62.2703 66.9161 62.3101 68.18L62.3102 68.1832L62.3114 68.2135L62.2507 68.2158L62.2496 68.1886C62.2496 68.188 62.2496 68.1875 62.2496 68.187C62.2094 66.9119 62.1492 65.7579 62.0891 64.6971C61.8822 60.75 61.758 58.1995 62.761 55.9288C63.7564 53.6755 65.9044 51.6227 70.4977 48.8527C70.4978 48.8526 70.498 48.8525 70.4981 48.8525L70.5219 48.8382L70.5504 48.8849L70.5326 48.8956Z" fill="#1E2C30" stroke="#1E2C30"/>
</g>
<defs>
<clipPath id="clip0_237_278">
<rect width="141.03" height="123.86" fill="white" transform="translate(0 0.444336)"/>
</clipPath>
</defs>
</svg>
