<svg width="142" height="124" viewBox="0 0 142 124" fill="none" xmlns="http://www.w3.org/2000/svg">
<g clip-path="url(#clip0_237_176)">
<path d="M121.66 123.83L115.99 123.86L119.94 119.7C130.96 106.96 137.03 90.48 137.03 73.31C137.03 35.09 107.19 4 70.51 4C33.83 4 4 35.09 4 73.31C4 90.48 10.07 106.95 21.09 119.7L25.04 123.85L19.38 123.83L18.07 122.32C6.42 108.85 0 91.44 0 73.31C0 32.89 31.63 0 70.52 0C109.41 0 141.04 32.89 141.04 73.31C141.04 91.44 134.62 108.85 122.97 122.32L121.66 123.83Z" fill="#1E2C30"/>
<path d="M93.04 75.97L91.04 120.24H92.04H93.04L95.04 75.97H94.04H93.04Z" fill="#1E2C30"/>
<path d="M46.3301 75.97H45.3301L47.3301 120.24H48.3301H49.3301L47.3301 75.97H46.3301Z" fill="#1E2C30"/>
<path d="M107.17 89.45C106.99 88.25 106.95 87.16 107.04 86.1C108.58 68.29 100.61 58.27 82.05 54.83C84.62 51.3 86.21 46.63 86.21 41.5C86.21 30.53 79.03 21.61 70.21 21.61C61.39 21.61 54.21 30.53 54.21 41.5C54.21 46.83 55.92 51.67 58.67 55.25C40.3 58.74 32.41 68.75 33.95 86.47C34.04 87.53 34 88.62 33.82 89.82C32.91 95.98 30.18 115.4 29.51 120.24H31.53C32.27 114.95 34.91 96.16 35.8 90.11C36 88.76 36.05 87.51 35.94 86.3C34.46 69.23 41.98 60.09 60.2 57C61.03 56.86 61.88 56.73 62.75 56.62C62.1 56.1 61.49 55.51 60.92 54.86C58.03 51.58 56.2 46.82 56.2 41.5C56.2 31.64 62.48 23.61 70.2 23.61C77.92 23.61 84.2 31.63 84.2 41.5C84.2 46.6 82.51 51.19 79.83 54.45C79.3 55.1 78.73 55.7 78.12 56.23C78.96 56.34 79.78 56.46 80.59 56.59C98.96 59.65 106.53 68.79 105.05 85.92C104.94 87.14 104.99 88.38 105.19 89.73C106.11 95.92 108.85 115.49 109.52 120.23H111.54C110.96 116.11 108.11 95.78 107.17 89.44V89.45Z" fill="#1E2C30"/>
<path d="M70.7134 118.8L70.7037 118.79H70.6001C68.8513 118.79 66.938 118.579 65.4412 118.152C64.6918 117.938 64.0608 117.674 63.6086 117.365C63.1544 117.055 62.9126 116.723 62.8681 116.378C62.8275 116.064 62.9847 115.771 63.3934 115.49C63.8048 115.207 64.4265 114.971 65.1894 114.785C66.7098 114.414 68.7053 114.26 70.4601 114.26C72.8491 114.26 74.7922 114.531 76.1507 114.955C76.8307 115.167 77.3525 115.414 77.7092 115.676C78.0684 115.939 78.232 116.195 78.2622 116.422C78.2939 116.67 78.144 116.953 77.7108 117.26C77.2864 117.56 76.6519 117.834 75.883 118.066C74.3794 118.519 72.4275 118.789 70.7134 118.8ZM70.4601 112.93C67.8258 112.93 65.4641 113.287 63.7521 113.88C62.8972 114.176 62.1905 114.535 61.6926 114.95C61.1955 115.363 60.8801 115.855 60.8801 116.41C60.8801 116.965 61.1955 117.457 61.6926 117.87C62.1905 118.285 62.8972 118.644 63.7521 118.94C65.4641 119.533 67.8258 119.89 70.4601 119.89C73.0945 119.89 75.4561 119.533 77.1682 118.94C78.0231 118.644 78.7298 118.285 79.2276 117.87C79.7247 117.457 80.0401 116.965 80.0401 116.41C80.0401 115.855 79.7247 115.363 79.2276 114.95C78.7298 114.535 78.0231 114.176 77.1682 113.88C75.4561 113.287 73.0945 112.93 70.4601 112.93Z" fill="#1E2C30" stroke="#1E2C30" stroke-width="0.5"/>
<path d="M79.3301 119.64C81.7801 119.64 83.7701 118.16 83.7701 116.32C83.7701 114.48 81.7801 113 79.3301 113" stroke="#1E2C30" stroke-width="0.5" stroke-miterlimit="10"/>
<path d="M61.5899 119.73C59.1399 119.73 57.1499 118.25 57.1499 116.41C57.1499 114.57 59.1399 113.09 61.5899 113.09" stroke="#1E2C30" stroke-width="0.5" stroke-miterlimit="10"/>
<mask id="path-8-inside-1_237_176" fill="white">
<path d="M42.7101 57.74L44.7401 57.24L42.9001 56.91L42.5101 56.99C34.6501 58.68 32.3501 67.21 32.3501 67.21L32.6101 68.85L33.0901 67.49C33.0901 67.49 35.2901 59.34 42.6901 57.75L42.7101 57.74Z"/>
</mask>
<path d="M42.7101 57.74L44.7401 57.24L42.9001 56.91L42.5101 56.99C34.6501 58.68 32.3501 67.21 32.3501 67.21L32.6101 68.85L33.0901 67.49C33.0901 67.49 35.2901 59.34 42.6901 57.75L42.7101 57.74Z" fill="#1E2C30"/>
<path d="M42.7101 57.74L42.4709 56.769L42.3627 56.7957L42.263 56.8455L42.7101 57.74ZM44.7401 57.24L44.9793 58.211L44.9166 56.2557L44.7401 57.24ZM42.9001 56.91L43.0766 55.9257L42.8874 55.8918L42.6992 55.9304L42.9001 56.91ZM42.5101 56.99L42.3091 56.0104L42.2999 56.0123L42.5101 56.99ZM32.3501 67.21L31.3846 66.9497L31.329 67.1558L31.3624 67.3666L32.3501 67.21ZM32.6101 68.85L31.6224 69.0066L33.5531 69.1828L32.6101 68.85ZM33.0901 67.49L34.0331 67.8228L34.0457 67.7871L34.0555 67.7506L33.0901 67.49ZM42.6901 57.75L42.9002 58.7277L43.024 58.7011L43.1372 58.6445L42.6901 57.75ZM42.9493 58.711L44.9793 58.211L44.5009 56.269L42.4709 56.769L42.9493 58.711ZM44.9166 56.2557L43.0766 55.9257L42.7236 57.8943L44.5636 58.2243L44.9166 56.2557ZM42.6992 55.9304L42.3092 56.0104L42.711 57.9696L43.101 57.8896L42.6992 55.9304ZM42.2999 56.0123C38.0277 56.9309 35.2932 59.7072 33.6497 62.1803C32.8263 63.4194 32.264 64.6 31.9069 65.4717C31.728 65.9084 31.5996 66.2701 31.5149 66.5261C31.4725 66.6542 31.441 66.7561 31.4196 66.8279C31.4089 66.8638 31.4007 66.8922 31.3949 66.9126C31.392 66.9229 31.3897 66.9311 31.388 66.9373C31.3871 66.9404 31.3864 66.943 31.3858 66.945C31.3856 66.9461 31.3853 66.947 31.3851 66.9477C31.385 66.9481 31.3849 66.9486 31.3848 66.9488C31.3847 66.9492 31.3846 66.9497 32.3501 67.21C33.3156 67.4703 33.3155 67.4707 33.3154 67.471C33.3154 67.4711 33.3153 67.4714 33.3153 67.4715C33.3152 67.4717 33.3152 67.4719 33.3152 67.4719C33.3152 67.4719 33.3153 67.4713 33.3156 67.4703C33.3162 67.4683 33.3173 67.4643 33.319 67.4583C33.3224 67.4464 33.328 67.4267 33.3361 67.3997C33.3522 67.3457 33.3778 67.2627 33.4137 67.1542C33.4855 66.9372 33.5981 66.6192 33.7576 66.2299C34.0774 65.4494 34.5814 64.3918 35.3155 63.2872C36.787 61.0728 39.1325 58.7391 42.7203 57.9677L42.2999 56.0123ZM31.3624 67.3666L31.6224 69.0066L33.5978 68.6934L33.3378 67.0534L31.3624 67.3666ZM33.5531 69.1828L34.0331 67.8228L32.1471 67.1572L31.6671 68.5172L33.5531 69.1828ZM33.0901 67.49C34.0555 67.7506 34.0555 67.751 34.0554 67.7513C34.0553 67.7513 34.0553 67.7516 34.0552 67.7517C34.0552 67.752 34.0551 67.7521 34.0551 67.7522C34.0551 67.7522 34.0552 67.7517 34.0555 67.7508C34.056 67.7489 34.0571 67.7451 34.0587 67.7395C34.0619 67.7282 34.0672 67.7095 34.0749 67.6839C34.0902 67.6326 34.1145 67.5535 34.1487 67.4502C34.2169 67.2435 34.324 66.9405 34.4754 66.5695C34.7789 65.8256 35.2565 64.8181 35.9499 63.7669C37.3411 61.6577 39.5466 59.4482 42.9002 58.7277L42.48 56.7723C38.4336 57.6418 35.8391 60.3023 34.2803 62.6657C33.4987 63.8506 32.9638 64.9801 32.6236 65.814C32.4531 66.2318 32.3305 66.578 32.2495 66.8232C32.209 66.9458 32.1789 67.0434 32.1583 67.1123C32.1481 67.1467 32.1402 67.174 32.1346 67.1937C32.1318 67.2035 32.1296 67.2114 32.1279 67.2174C32.1271 67.2204 32.1264 67.2229 32.1259 67.2249C32.1256 67.2259 32.1254 67.2268 32.1252 67.2275C32.1251 67.2279 32.1249 67.2284 32.1249 67.2285C32.1248 67.229 32.1247 67.2294 33.0901 67.49ZM43.1372 58.6445L43.1572 58.6345L42.263 56.8455L42.243 56.8555L43.1372 58.6445Z" fill="#1E2C30" mask="url(#path-8-inside-1_237_176)"/>
</g>
<defs>
<clipPath id="clip0_237_176">
<rect width="141.03" height="123.86" fill="white"/>
</clipPath>
</defs>
</svg>
