<svg width="142" height="125" viewBox="0 0 142 125" fill="none" xmlns="http://www.w3.org/2000/svg">
<g clip-path="url(#clip0_237_287)">
<path d="M97.9099 121.684C99.1599 122.064 85.9599 123.984 70.4399 123.984C54.9199 123.984 40.3999 121.454 40.3999 121.454C40.3999 121.454 52.5599 121.734 70.8699 121.174C86.3799 120.704 96.2299 121.174 97.8999 121.684H97.9099Z" fill="#1E2C30"/>
<path d="M98.6599 119.974C98.4499 119.644 98.1599 119.454 97.7999 119.414C97.6599 119.394 97.5299 119.394 97.3999 119.384C97.2299 119.384 97.0599 119.374 96.8299 119.334C96.2099 119.224 95.6999 119.074 95.6699 119.064C95.3799 118.984 94.7799 118.804 94.1799 118.544C94.0999 117.994 93.7699 117.644 93.4299 117.324L93.3399 117.244C92.0299 115.984 91.2199 116.034 90.4399 116.084C89.8999 116.114 89.3799 116.144 88.5399 115.724C86.8699 114.894 70.2099 98.0943 69.5899 93.0843C69.1899 89.8643 71.1499 86.9543 73.0399 84.1343C73.3099 83.7343 73.5799 83.3343 73.8299 82.9443C78.9099 75.1643 82.8599 70.7643 87.8599 65.1843C89.2699 63.6143 90.7499 61.9643 92.3599 60.1143C93.3299 59.0043 94.3599 57.8943 95.3899 56.7743C100.76 50.9843 106.31 44.9943 103.52 39.0543C102.08 35.9943 99.2099 33.8543 96.6899 31.9743L96.2999 31.6843L96.2299 31.6343L95.9799 31.4443H95.9599C91.4799 28.5343 84.3999 25.0843 83.4299 25.6343C81.0199 26.9943 70.9799 38.5043 70.5999 39.0343C67.0399 43.9143 62.7599 55.4543 62.5799 55.9543C62.5399 56.0743 58.2899 67.9743 56.8799 71.7843C56.1799 73.6843 55.1699 75.8643 54.2699 77.7943C53.7799 78.8643 53.3299 79.8143 53.0199 80.5643C51.8299 83.4043 48.4599 88.3343 48.4399 88.3543C46.8599 90.3543 45.0599 92.4043 43.4999 94.0043C42.8899 94.6343 42.2699 95.2343 41.6699 95.8143C39.5199 97.8943 37.4899 99.8543 36.7699 102.444C36.1399 105.064 36.4699 107.234 37.7499 108.904C40.3699 112.304 46.4299 112.874 51.4199 112.994C51.4599 112.994 55.0399 113.114 59.8699 115.284C61.8999 116.194 67.8199 119.454 67.8899 119.494L70.6899 120.944C71.8099 121.524 73.0599 121.834 74.3199 121.834L96.8799 121.944C96.8799 121.944 96.9299 121.944 96.9999 121.944C97.2199 121.944 97.6999 121.924 98.0199 121.774C98.4799 121.554 98.7199 121.074 98.7399 121.024L98.8599 120.754L98.8199 120.694C98.8599 120.384 98.7499 120.134 98.6499 119.974H98.6599ZM102.62 39.5043C105.12 44.8243 99.7999 50.5643 94.6599 56.1143C93.6199 57.2343 92.5799 58.3543 91.6099 59.4743C89.9999 61.3143 88.5199 62.9643 87.1099 64.5343C82.0799 70.1443 78.1099 74.5643 72.9899 82.4143C72.7399 82.8043 72.4699 83.1943 72.2099 83.5943C70.3099 86.4243 68.1499 89.6243 68.5999 93.2243C69.1699 97.8543 80.5999 109.864 85.7399 114.644C84.0699 113.354 82.3399 112.144 80.6599 110.954C77.8599 108.984 74.9699 106.944 72.3799 104.624C68.7999 101.404 61.9199 94.0743 61.5299 89.3143C61.4899 88.8643 61.4799 87.6143 61.5299 87.3543C61.8499 85.4043 70.6199 67.8143 72.4199 64.5643C76.7599 56.6943 82.9599 47.5143 88.2099 41.1843C90.4299 38.5043 92.9399 35.8243 96.0799 32.7743L96.1099 32.7943C98.6599 34.6943 101.3 36.6643 102.64 39.4943L102.62 39.5043ZM97.8199 120.634C97.7699 120.714 97.6799 120.834 97.5899 120.884C97.4899 120.934 97.1399 120.964 96.9399 120.954L74.3299 120.834C73.2299 120.834 72.1299 120.554 71.1599 120.054L68.3699 118.614C68.1299 118.484 62.3499 115.304 60.2899 114.374C55.2599 112.114 51.6099 112.004 51.4499 111.994C46.6799 111.884 40.8999 111.364 38.5399 108.294C37.4599 106.884 37.1899 104.994 37.7399 102.704C38.3799 100.394 40.2299 98.6043 42.3599 96.5343C42.9699 95.9443 43.5899 95.3443 44.2099 94.7043C45.7999 93.0843 47.6299 90.9943 49.2399 88.9443C49.3799 88.7343 52.6999 83.8843 53.9299 80.9443C54.2399 80.2143 54.6799 79.2643 55.1699 78.2143C56.0699 76.2743 57.0899 74.0743 57.8099 72.1343C59.2199 68.3143 63.4699 56.4143 63.5099 56.2943C63.5499 56.1743 67.9199 44.3943 71.3999 39.6243C71.8099 39.0543 81.5499 27.9643 83.8399 26.5543C84.7799 26.6143 90.1899 28.9443 95.0999 32.1043C94.8099 32.4043 94.3299 32.8643 93.8299 33.3443C91.6599 35.4243 88.0399 38.9143 85.2799 42.7643C84.7299 43.5343 84.0199 44.5543 83.2499 45.6543C81.5999 48.0243 79.7399 50.7043 78.5299 52.2443C74.4399 57.4943 70.1799 65.9743 67.3399 71.8943C62.0299 82.9543 60.4999 86.1843 60.3799 87.1743C60.2299 88.4443 60.4599 89.7743 60.5599 90.3543C60.5799 90.4443 60.5899 90.5143 60.5899 90.5143C60.5899 90.7843 61.0599 92.2243 61.7299 93.4843C62.6999 95.3243 64.1699 97.4743 64.8899 98.2543C65.1699 98.5643 65.5499 99.0043 65.9799 99.5243C66.6499 100.324 67.4699 101.314 68.3399 102.234C71.1099 105.184 74.5499 107.884 74.5999 107.924L83.2099 114.174L87.2899 117.374C87.2899 117.374 87.6399 117.574 88.1399 117.754C88.3199 117.824 88.5599 117.874 88.7399 117.904L88.8699 117.934C89.4399 118.064 89.9699 118.054 90.4399 118.054C90.8299 118.054 91.2399 118.054 91.5799 118.134C91.6799 118.154 91.9699 118.344 92.2299 118.564C93.2899 119.474 95.3199 120.004 95.3899 120.024C95.4099 120.024 95.9699 120.194 96.6499 120.314C96.9299 120.364 97.1399 120.374 97.3499 120.384C97.4599 120.384 97.5599 120.384 97.6799 120.404C97.7099 120.404 97.7499 120.404 97.8099 120.514C97.8399 120.554 97.8299 120.574 97.8099 120.624L97.8199 120.634Z" fill="#1E2C30" stroke="#1E2C30" stroke-miterlimit="10"/>
<path d="M30.6887 108.32C31.5792 111.486 34.5065 113.958 39.0757 115.672C34.3499 113.901 31.535 111.372 30.6816 108.32L30.6814 108.319C29.5316 104.225 31.8215 99.0607 37.7375 93.3438L37.7386 93.3428L37.7401 93.3413L37.743 93.3443L37.7423 93.345C37.7422 93.3451 37.7421 93.3452 37.742 93.3453C34.8914 96.1051 32.838 98.7723 31.6401 101.28C30.441 103.79 30.0867 106.17 30.6886 108.319L30.6887 108.32Z" fill="#1E2C30" stroke="#1E2C30"/>
<path d="M121.66 124.274L115.99 124.304L119.94 120.144C130.96 107.404 137.03 90.9243 137.03 73.7543C137.03 35.5343 107.19 4.44434 70.51 4.44434C33.83 4.44434 4 35.5343 4 73.7543C4 90.9243 10.07 107.394 21.09 120.144L25.04 124.294L19.38 124.274L18.07 122.764C6.42 109.294 0 91.8843 0 73.7543C0 33.3343 31.63 0.444336 70.52 0.444336C109.41 0.444336 141.04 33.3343 141.04 73.7543C141.04 91.8843 134.62 109.294 122.97 122.764L121.66 124.274Z" fill="#1E2C30"/>
</g>
<defs>
<clipPath id="clip0_237_287">
<rect width="141.03" height="123.86" fill="white" transform="translate(0 0.444336)"/>
</clipPath>
</defs>
</svg>
