<svg width="142" height="124" viewBox="0 0 142 124" fill="none" xmlns="http://www.w3.org/2000/svg">
<g clip-path="url(#clip0_237_192)">
<path d="M62.1902 69.23L61.9245 68.8065C60.8419 69.4857 59.4568 70.508 58.3483 71.5613C57.7948 72.0872 57.2962 72.6341 56.9389 73.1611C56.5933 73.6709 56.325 74.2409 56.3613 74.7928L56.3627 74.8145L56.366 74.836C56.3667 74.8405 56.3675 74.8458 56.3683 74.8519C56.3803 74.9357 56.4127 75.1631 56.587 75.419C56.7688 75.686 57.0734 75.943 57.5637 76.1654L57.5659 76.1664C59.0823 76.8452 60.4707 76.7597 61.6311 76.224C62.7747 75.6959 63.6639 74.7473 64.2518 73.7425L64.2518 73.7425L64.256 73.7351C64.2927 73.6698 64.3815 73.6332 64.4751 73.6858C64.5397 73.7221 64.5762 73.8093 64.5262 73.9017C63.3684 75.8648 61.6656 76.9094 59.8442 76.9582L59.7323 76.951C58.494 76.8715 57.6007 76.6093 57.0108 76.2482C56.4339 75.8951 56.1522 75.4539 56.0842 74.9659C56.0135 74.4594 56.1622 73.8214 56.6157 73.0782C57.0673 72.338 57.8013 71.5279 58.8331 70.7L58.8333 70.7001L58.8439 70.6911C60.1851 69.552 61.5088 68.6968 61.7283 68.555C61.735 68.5507 61.7407 68.547 61.7453 68.5441C61.8217 68.4997 61.9165 68.5196 61.9687 68.5896C62.0148 68.6743 61.9806 68.771 61.9227 68.8076L62.1902 69.23ZM62.1902 69.23C62.4902 69.04 62.5802 68.63 62.3902 68.32L59.7102 77.46C61.7902 77.46 63.7002 76.29 64.9602 74.15C65.1402 73.83 65.0402 73.43 64.7202 73.25C64.4002 73.07 64.0002 73.17 63.8202 73.49C62.7202 75.37 60.5402 76.95 57.7702 75.71C56.9431 75.3349 56.8837 74.9228 56.8626 74.7762C56.8618 74.7704 56.861 74.765 56.8602 74.76C56.7602 73.24 60.0702 70.56 62.1902 69.23Z" fill="#1E2C30" stroke="#1E2C30"/>
<path d="M57.4002 83.3716L57.1486 83.3917C56.6501 83.3937 56.2227 83.2929 55.8538 83.0981C54.9793 82.6341 54.5604 81.691 54.3759 80.7398C54.2024 79.8461 54.2583 79.0543 54.2677 78.929C54.2744 78.8825 54.2963 78.8477 54.3245 78.8244C54.3522 78.8016 54.3912 78.7855 54.442 78.7879C54.5336 78.8014 54.5877 78.875 54.5819 78.9565C54.5432 79.3649 54.5441 80.1091 54.7098 80.8438C54.871 81.5589 55.2215 82.4078 55.9987 82.8133L56.23 82.37L55.9976 82.8127C56.5592 83.1076 57.4331 83.2087 58.7629 82.7347C60.0859 82.2632 61.9079 81.2076 64.4293 79.1148L64.4294 79.1148L64.4342 79.1106C64.4964 79.0577 64.5953 79.0685 64.6436 79.1274C64.6994 79.1953 64.688 79.3 64.6226 79.3536L64.621 79.355C61.4747 81.9619 59.1108 83.2351 57.4002 83.3716Z" fill="#1E2C30" stroke="#1E2C30"/>
<path d="M56.2 88.8949L55.8046 88.9509C54.9513 89.0157 54.3487 88.8458 53.9355 88.5342C53.3497 88.0715 53.1759 87.3315 53.1862 86.5945C53.1956 85.9262 53.356 85.3624 53.3951 85.2271C53.4313 85.1397 53.5261 85.1031 53.5961 85.1257C53.6744 85.1511 53.7189 85.2399 53.6943 85.3161L53.6943 85.3161C53.6743 85.3784 53.5313 85.8587 53.4936 86.4216C53.4742 86.7118 53.4809 87.0483 53.561 87.3709C53.6416 87.6952 53.8052 88.0374 54.123 88.2847L54.123 88.2847L54.1255 88.2866C54.5832 88.638 55.4307 88.841 56.9943 88.4312C58.5639 88.0198 60.9492 86.969 64.5972 84.6626L64.5972 84.6626L64.6011 84.6602C64.6696 84.6159 64.7611 84.634 64.8076 84.7075C64.8273 84.7386 64.8352 84.7797 64.8256 84.8232C64.816 84.8665 64.7921 84.8989 64.7625 84.9176C60.9567 87.3249 58.1353 88.6212 56.2 88.8949Z" fill="#1E2C30" stroke="#1E2C30"/>
<path d="M52.6491 91.5737L52.6563 91.5498L52.661 91.5254C52.6784 91.4362 52.7558 91.3842 52.8434 91.4005C52.9242 91.4174 52.9821 91.4997 52.9674 91.5855L52.9602 91.6274V91.6345C52.9582 91.6482 52.9558 91.6656 52.953 91.6861C52.9455 91.7425 52.9359 91.8218 52.9275 91.9177C52.9107 92.1081 52.8979 92.3705 52.9163 92.6548C52.9498 93.1737 53.101 93.9799 53.7735 94.379C54.2963 94.6946 55.222 94.8124 56.8525 94.184C58.4919 93.5523 60.9359 92.1338 64.5924 89.2105L64.5925 89.2106L64.5976 89.2064C64.6537 89.1603 64.7503 89.16 64.8139 89.2374C64.8595 89.293 64.8602 89.3885 64.7848 89.452C62.448 91.3162 60.4521 92.6957 58.7786 93.6071C57.0935 94.5248 55.7849 94.94 54.8102 94.94H54.5611C54.1815 94.9088 53.8655 94.8058 53.6086 94.6519C52.9607 94.2579 52.6966 93.557 52.6157 92.8529C52.576 92.5073 52.5839 92.1839 52.604 91.9401C52.6194 91.7539 52.6401 91.632 52.6476 91.5883C52.6505 91.5713 52.6514 91.5662 52.6491 91.5737Z" fill="#1E2C30" stroke="#1E2C30"/>
<path d="M59.1172 100.311C57.3411 101.278 55.9323 101.752 54.8521 101.805L54.8471 101.8H54.6401C54.0776 101.8 53.6285 101.678 53.2563 101.461C52.5107 101.007 52.2116 100.2 52.1207 99.4021C52.0322 98.6264 52.1554 97.9693 52.1622 97.9331C52.1624 97.932 52.1625 97.9315 52.1625 97.9315L52.1673 97.9138L52.1709 97.8957C52.1977 97.7581 52.3133 97.6845 52.4421 97.7103C52.5666 97.7352 52.6525 97.8517 52.6276 97.9938L52.6201 98.0366V98.0468C52.6179 98.0628 52.6149 98.0843 52.6116 98.1103C52.6034 98.1729 52.5931 98.2609 52.5841 98.3674C52.5662 98.5789 52.5528 98.8692 52.5737 99.1832C52.6124 99.7631 52.7817 100.634 53.5013 101.068C54.0644 101.41 55.0809 101.548 56.9022 100.847C58.7315 100.142 61.4654 98.559 65.5619 95.2908L65.562 95.2909L65.5654 95.288C65.6642 95.2078 65.8095 95.223 65.8909 95.3239C65.9676 95.419 65.951 95.5735 65.857 95.6501C63.2343 97.7403 60.9951 99.2879 59.1172 100.311ZM52.6236 98.0218L52.6234 98.0234C52.6245 98.0127 52.6252 98.0098 52.6236 98.0218Z" fill="#1E2C30" stroke="#1E2C30"/>
<path d="M76.8519 73.8878L76.8519 73.8878L76.85 73.8847C76.8033 73.8059 76.8298 73.7158 76.8985 73.674C76.9909 73.624 77.078 73.6606 77.1143 73.7251L77.1142 73.7252L77.1196 73.7342C77.7119 74.7374 78.6006 75.6858 79.7428 76.2138C80.9021 76.7498 82.2881 76.8351 83.8044 76.1564L83.8047 76.1562C84.2955 75.9362 84.6069 75.6835 84.7923 75.4162C84.977 75.1498 85.0077 74.9104 85.01 74.768C85.0405 74.2408 84.7834 73.6928 84.4544 73.2014C84.1095 72.6863 83.6259 72.1465 83.0825 71.6216C81.9941 70.5704 80.6112 69.5275 79.4575 68.7975L79.4575 68.7974L79.4514 68.7937C79.3878 68.7547 79.356 68.6595 79.4034 68.5763C79.4498 68.5095 79.5392 68.4836 79.6252 68.5341C79.6306 68.5376 79.6373 68.5419 79.6453 68.5471C79.8756 68.6951 81.2 69.5468 82.5252 70.68L82.5311 70.685L82.5371 70.6899C83.5715 71.5203 84.3061 72.3316 84.7574 73.0722C85.2104 73.8157 85.3579 74.453 85.2863 74.9587C85.2174 75.446 84.9347 75.8867 84.3572 76.2394C83.7667 76.6 82.8738 76.8615 81.638 76.941L81.5266 76.9482C79.7119 76.8993 77.9994 75.8523 76.8519 73.8878Z" fill="#1E2C30" stroke="#1E2C30"/>
<path d="M83.9192 83.3108L83.5792 83.2911C81.9035 83.0804 79.6002 81.8829 76.5843 79.5309C76.5147 79.4709 76.5031 79.3691 76.5559 79.2958C76.6032 79.2392 76.6991 79.22 76.7761 79.2769C79.3514 81.2873 81.2009 82.2855 82.5365 82.717C83.8796 83.1509 84.7504 83.0249 85.3035 82.7168L85.3037 82.7167C86.0685 82.2903 86.3934 81.4319 86.5335 80.7131C86.6779 79.9718 86.6566 79.2253 86.6065 78.8188L86.6065 78.8188L86.6055 78.8112C86.5946 78.7331 86.6521 78.6562 86.7354 78.6469L86.7355 78.6471L86.749 78.6452C86.82 78.6354 86.9018 78.6868 86.9153 78.7807C86.9152 78.7804 86.9157 78.7842 86.9168 78.7928L86.9206 78.8262C86.9236 78.8546 86.9275 78.8941 86.9315 78.9436C86.9395 79.0426 86.9479 79.1803 86.9513 79.3464C86.958 79.6798 86.9443 80.1205 86.8691 80.5881C86.7154 81.5434 86.3259 82.497 85.4639 82.9849C85.0276 83.2319 84.5253 83.346 83.9192 83.3108Z" fill="#1E2C30" stroke="#1E2C30"/>
<path d="M85.0675 88.8871L85.0677 88.8846C83.1309 88.6201 80.2987 87.352 76.4635 84.975L76.4635 84.975L76.4613 84.9737C76.3917 84.931 76.3702 84.8343 76.4125 84.7675C76.4332 84.7347 76.4692 84.7084 76.5139 84.6978C76.5581 84.6874 76.5957 84.6954 76.6225 84.7124L76.6225 84.7124L76.626 84.7146C80.2942 86.9959 82.6902 88.0266 84.2644 88.4224C85.8317 88.8165 86.68 88.6024 87.1324 88.2404L86.82 87.85M85.0675 88.8871L84.9481 89.3727C82.901 89.0777 80.0077 87.76 76.2 85.4C75.89 85.21 75.8 84.8 75.99 84.5C76.18 84.2 76.59 84.1 76.89 84.29C84.19 88.83 86.27 88.29 86.82 87.85M85.0675 88.8871C86.1378 89.0231 86.8522 88.8574 87.3198 88.4879C87.9069 88.0226 88.0736 87.2811 88.054 86.542C88.0363 85.8763 87.87 85.318 87.8265 85.1718C87.8253 85.1676 87.8241 85.1637 87.8231 85.1602M85.0675 88.8871L87.8231 85.1602M86.82 87.85C87.5 87.31 87.22 85.89 87.06 85.43C86.94 85.09 87.1301 84.72 87.4701 84.6M86.82 87.85L87.131 88.2416C87.6633 87.8189 87.7603 87.1163 87.755 86.6048C87.7494 86.0639 87.6278 85.5402 87.5323 85.2657L87.5315 85.2636C87.5091 85.1999 87.5406 85.1066 87.6343 85.0723M87.4701 84.6L87.6322 85.073C87.6329 85.0727 87.6336 85.0725 87.6343 85.0723M87.4701 84.6C87.8201 84.48 88.1901 84.67 88.3001 85.01L87.4701 84.6ZM87.6343 85.0723C87.7178 85.0448 87.7978 85.0891 87.8231 85.1602M87.6343 85.0723L87.8231 85.1602" fill="#1E2C30" stroke="#1E2C30"/>
<path d="M87.6544 94.6603C87.3874 94.8159 87.0619 94.9188 86.6858 94.95H86.4401C85.4707 94.95 84.1647 94.535 82.4806 93.6172C80.8083 92.7058 78.8123 91.3262 76.4756 89.4621C76.4013 89.3994 76.3981 89.3011 76.4402 89.243C76.5032 89.1712 76.6066 89.1703 76.6628 89.2164L76.6627 89.2164L76.6685 89.221C80.33 92.1392 82.7737 93.5549 84.4115 94.1865C86.0438 94.816 86.964 94.698 87.4845 94.3905L87.4845 94.3905L87.4881 94.3883C88.1588 93.9844 88.3104 93.1778 88.3441 92.6573C88.3625 92.3731 88.3496 92.1112 88.3329 91.9218C88.3244 91.8263 88.3148 91.7476 88.3071 91.6916C88.3045 91.6723 88.3021 91.6558 88.3001 91.6423V91.6305L88.2904 91.5819C88.2837 91.5486 88.2907 91.5095 88.3152 91.4737C88.3397 91.4379 88.373 91.4182 88.4046 91.4128L88.4046 91.413L88.4182 91.4103C88.4569 91.4025 88.4977 91.411 88.5315 91.4335C88.5647 91.4557 88.5822 91.485 88.5873 91.5145L88.5873 91.5145L88.5882 91.5194L88.5886 91.5219C88.5995 91.5812 88.7087 92.1775 88.6319 92.8672C88.5532 93.5751 88.2931 94.2723 87.6544 94.6603Z" fill="#1E2C30" stroke="#1E2C30"/>
<path d="M87.1696 101.8H86.9201C85.8158 101.8 84.3399 101.328 82.4482 100.296C80.5679 99.2706 78.3264 97.7207 75.704 95.6308C75.593 95.5395 75.5876 95.3935 75.6587 95.3046C75.7466 95.1972 75.8916 95.1843 75.9948 95.2681L75.9948 95.2681L75.9982 95.2708C80.0999 98.5441 82.8362 100.127 84.6654 100.832C86.4854 101.532 87.4981 101.395 88.056 101.06C88.7836 100.626 88.9529 99.7503 88.9903 99.1683C89.0105 98.8534 88.9961 98.5624 88.9773 98.3511C88.9678 98.2447 88.9571 98.1569 88.9487 98.0944C88.9453 98.07 88.9424 98.0496 88.9401 98.0338V98.0205L88.9304 97.9719C88.9051 97.8458 88.9947 97.7225 89.1084 97.7021L89.1084 97.7022L89.1181 97.7003C89.2546 97.673 89.3694 97.7649 89.3879 97.8683L89.3909 97.8849L89.395 97.9013C89.3949 97.9008 89.3951 97.9018 89.3955 97.9043C89.4001 97.9286 89.4314 98.0939 89.4525 98.353C89.4752 98.632 89.4843 99.0015 89.4395 99.3961C89.3485 100.198 89.049 101.007 88.3039 101.461C87.9893 101.645 87.608 101.766 87.1696 101.8Z" fill="#1E2C30" stroke="#1E2C30"/>
<path d="M121.66 123.83L115.99 123.86L119.94 119.7C130.96 106.96 137.03 90.48 137.03 73.31C137.03 35.09 107.19 4 70.51 4C33.83 4 4 35.09 4 73.31C4 90.48 10.07 106.95 21.09 119.7L25.04 123.85L19.38 123.83L18.07 122.32C6.42 108.85 0 91.44 0 73.31C0 32.89 31.63 0 70.52 0C109.41 0 141.04 32.89 141.04 73.31C141.04 91.44 134.62 108.85 122.97 122.32L121.66 123.83Z" fill="#1E2C30"/>
<path d="M93.04 75.97L91.04 120.24H92.04H93.04L95.04 75.97H94.04H93.04Z" fill="#1E2C30"/>
<path d="M46.3301 75.97H45.3301L47.3301 120.24H48.3301H49.3301L47.3301 75.97H46.3301Z" fill="#1E2C30"/>
<path d="M107.17 89.45C106.99 88.25 106.95 87.16 107.04 86.1C108.58 68.29 100.61 58.27 82.05 54.83C84.62 51.3 86.21 46.63 86.21 41.5C86.21 30.53 79.03 21.61 70.21 21.61C61.39 21.61 54.21 30.53 54.21 41.5C54.21 46.83 55.92 51.67 58.67 55.25C40.3 58.74 32.41 68.75 33.95 86.47C34.04 87.53 34 88.62 33.82 89.82C32.91 95.98 30.18 115.4 29.51 120.24H31.53C32.27 114.95 34.91 96.16 35.8 90.11C36 88.76 36.05 87.51 35.94 86.3C34.46 69.23 41.98 60.09 60.2 57C61.03 56.86 61.88 56.73 62.75 56.62C62.1 56.1 61.49 55.51 60.92 54.86C58.03 51.58 56.2 46.82 56.2 41.5C56.2 31.64 62.48 23.61 70.2 23.61C77.92 23.61 84.2 31.63 84.2 41.5C84.2 46.6 82.51 51.19 79.83 54.45C79.3 55.1 78.73 55.7 78.12 56.23C78.96 56.34 79.78 56.46 80.59 56.59C98.96 59.65 106.53 68.79 105.05 85.92C104.94 87.14 104.99 88.38 105.19 89.73C106.11 95.92 108.85 115.49 109.52 120.23H111.54C110.96 116.11 108.11 95.78 107.17 89.44V89.45Z" fill="#1E2C30"/>
<path d="M55.3999 91.32L56.8999 92.55" stroke="#1E2C30" stroke-width="0.5" stroke-miterlimit="10" stroke-linecap="round"/>
<path d="M57.74 90.42L58.48 91.78" stroke="#1E2C30" stroke-width="0.5" stroke-miterlimit="10" stroke-linecap="round"/>
<path d="M60.6199 88.98L60.1599 90.7" stroke="#1E2C30" stroke-width="0.5" stroke-miterlimit="10" stroke-linecap="round"/>
<path d="M57.9499 95.45L57.1399 98.27" stroke="#1E2C30" stroke-width="0.5" stroke-miterlimit="10" stroke-linecap="round"/>
<path d="M59.6201 94.81L60.6901 97.11" stroke="#1E2C30" stroke-width="0.5" stroke-miterlimit="10" stroke-linecap="round"/>
<path d="M63.8699 94.84L61.1299 93.84" stroke="#1E2C30" stroke-width="0.5" stroke-miterlimit="10" stroke-linecap="round"/>
</g>
<defs>
<clipPath id="clip0_237_192">
<rect width="141.03" height="123.86" fill="white"/>
</clipPath>
</defs>
</svg>
